<?xml version="1.0" standalone="no"?>
<!DOCTYPE svg PUBLIC "-//W3C//DTD SVG 1.1//EN" "http://www.w3.org/Graphics/SVG/1.1/DTD/svg11.dtd" >
<svg xmlns="http://www.w3.org/2000/svg">
<metadata>
<json>
<![CDATA[
{
	"fontFamily": "zwicon",
	"fontURL": "http://zwicon.com/",
	"designer": "Made by Zwoelf",
	"designerURL": "http://www.zwoelf.hu/en/",
	"license": "Attribution-NoDerivatives 4.0",
	"licenseURL": "https://creativecommons.org/licenses/by-nd/4.0/",
	"description": "free icon library to download\nFont generated by IcoMoon.",
	"majorVersion": 1,
	"minorVersion": 1,
	"version": "Version 1.1",
	"fontId": "zwicon",
	"psName": "zwicon",
	"subFamily": "Regular",
	"fullName": "zwicon"
}
]]>
</json>
</metadata>
<defs>
<font id="zwicon" horiz-adv-x="1024">
<font-face units-per-em="1024" ascent="819.8005865102639" descent="-204.19941348973606" />
<missing-glyph horiz-adv-x="1024" />
<glyph unicode="&#x20;" horiz-adv-x="0" d="" />
<glyph unicode="&#xe90f;" glyph-name="arrow-left" data-tags="arrow-left" d="M371.866 311.158h418.238c11.794 0 21.354-9.56 21.354-21.354s-9.56-21.354-21.354-21.354h-418.238l134.379-134.379c8.339-8.339 8.339-21.86 0-30.199s-21.86-8.339-30.199 0l-170.834 170.834c-8.339 8.339-8.339 21.86 0 30.199l170.834 170.834c8.339 8.339 21.86 8.339 30.199 0s8.339-21.86 0-30.199l-134.379-134.379z" />
<glyph unicode="&#xe910;" glyph-name="arrow-right" data-tags="arrow-right" d="M738.551 268.45h-418.238c-11.794 0-21.354 9.56-21.354 21.354s9.56 21.354 21.354 21.354h418.238l-134.379 134.379c-8.339 8.339-8.339 21.86 0 30.199s21.86 8.339 30.199 0l170.834-170.834c8.339-8.339 8.339-21.86 0-30.199l-170.834-170.834c-8.339-8.339-21.86-8.339-30.199 0s-8.339 21.86 0 30.199l134.379 134.379z" />
<glyph unicode="&#xe948;" glyph-name="archive" data-tags="archive" d="M128.125 631.471v-85.416c0-11.794 9.56-21.354 21.354-21.354h726.042c11.794 0 21.354 9.56 21.354 21.354v85.416c0 11.794-9.56 21.354-21.354 21.354h-726.042c-11.794 0-21.354-9.56-21.354-21.354zM896.876 485.637v-452.083c0-58.968-47.803-106.771-106.771-106.771h-555.209c-58.968 0-106.771 47.803-106.771 106.771v452.083c-24.881 8.795-42.709 32.524-42.709 60.417v85.416c0 35.381 28.682 64.063 64.063 64.063h726.042c35.381 0 64.063-28.682 64.063-64.063v-85.416c0-27.893-17.826-51.622-42.709-60.417v0zM854.167 481.992h-683.334v-448.438c0-35.381 28.682-64.063 64.063-64.063h555.209c35.381 0 64.063 28.682 64.063 64.063v448.438zM341.667 332.512c0 35.381 28.682 64.063 64.063 64.063h213.542c35.381 0 64.063-28.682 64.063-64.063s-28.682-64.063-64.063-64.063h-213.542c-35.381 0-64.063 28.682-64.063 64.063zM384.375 332.512c0-11.794 9.56-21.354 21.354-21.354h213.542c11.794 0 21.354 9.56 21.354 21.354s-9.56 21.354-21.354 21.354h-213.542c-11.794 0-21.354-9.56-21.354-21.354z" />
<glyph unicode="&#xe94f;" glyph-name="note" data-tags="note" d="M811.459 204.387v384.375c0 35.381-28.682 64.063-64.063 64.063h-469.792c-35.381 0-64.063-28.682-64.063-64.063v-555.209c0-35.381 28.682-64.063 64.063-64.063h298.959c35.381 0 64.063 28.682 64.063 64.063 0 58.968 47.803 106.771 106.771 106.771 35.381 0 64.063 28.682 64.063 64.063v0zM790.167 106.528c-13.095-5.732-27.561-8.911-42.77-8.911-35.381 0-64.063-28.682-64.063-64.063 0-15.209-3.18-29.675-8.911-42.77 51.080 23.44 92.303 64.663 115.744 115.744v0zM170.834 588.762c0 58.968 47.803 106.771 106.771 106.771h469.792c58.968 0 106.771-47.803 106.771-106.771v-384.375c0-153.317-124.287-277.604-277.604-277.604h-298.959c-58.968 0-106.771 47.803-106.771 106.771v555.209zM363.022 439.283c-11.794 0-21.354 9.56-21.354 21.354s9.56 21.354 21.354 21.354h298.959c11.794 0 21.354-9.56 21.354-21.354s-9.56-21.354-21.354-21.354h-298.959zM363.022 311.158c-11.794 0-21.354 9.56-21.354 21.354s9.56 21.354 21.354 21.354h298.959c11.794 0 21.354-9.56 21.354-21.354s-9.56-21.354-21.354-21.354h-298.959zM363.022 183.033c-11.794 0-21.354 9.56-21.354 21.354s9.56 21.354 21.354 21.354h213.542c11.794 0 21.354-9.56 21.354-21.354s-9.56-21.354-21.354-21.354h-213.542z" />
<glyph unicode="&#xe951;" glyph-name="script" data-tags="script" d="M768.751 54.908v576.563c0 35.381-28.682 64.063-64.063 64.063h-459.865c7.268-12.563 11.427-27.151 11.427-42.709v-683.334c0-23.587 19.122-42.709 42.709-42.709s42.709 19.122 42.709 42.709v64.063c0 11.794 9.56 21.354 21.354 21.354h405.729zM811.459 54.908h106.771c11.794 0 21.354-9.56 21.354-21.354v-42.709c0-58.968-47.803-106.771-106.771-106.771h-533.854c-47.174 0-85.416 38.242-85.416 85.416v597.917h-42.709c-47.174 0-85.416 38.242-85.416 85.416s38.242 85.416 85.416 85.416h533.854c58.968 0 106.771-47.803 106.771-106.771v-576.563zM384.375 12.199v-42.709c0-15.558-4.159-30.144-11.427-42.709h459.865c35.381 0 64.063 28.682 64.063 64.063v21.354h-512.5zM213.542 610.117v42.709c0 23.587-19.122 42.709-42.709 42.709s-42.709-19.122-42.709-42.709c0-23.587 19.122-42.709 42.709-42.709h42.709zM363.022 524.7c-11.794 0-21.354 9.56-21.354 21.354s9.56 21.354 21.354 21.354h298.959c11.794 0 21.354-9.56 21.354-21.354s-9.56-21.354-21.354-21.354h-298.959zM363.022 396.575c-11.794 0-21.354 9.56-21.354 21.354s9.56 21.354 21.354 21.354h298.959c11.794 0 21.354-9.56 21.354-21.354s-9.56-21.354-21.354-21.354h-298.959zM363.022 268.45c-11.794 0-21.354 9.56-21.354 21.354s9.56 21.354 21.354 21.354h298.959c11.794 0 21.354-9.56 21.354-21.354s-9.56-21.354-21.354-21.354h-298.959zM363.022 140.325c-11.794 0-21.354 9.56-21.354 21.354s9.56 21.354 21.354 21.354h213.542c11.794 0 21.354-9.56 21.354-21.354s-9.56-21.354-21.354-21.354h-213.542z" />
<glyph unicode="&#xe967;" glyph-name="eraser" data-tags="eraser" d="M463.641-30.508h12.806c18.584 1.462 36.761 9.301 50.976 23.516l29.744 29.744-332.822 332.822-29.744-29.744c-31.69-31.69-31.69-83.068 0-114.758l218.064-218.064c14.215-14.215 32.392-22.054 50.976-23.516zM564.305-30.508h225.8c11.794 0 21.354-9.56 21.354-21.354s-9.56-21.354-21.354-21.354h-312.149c-5.269-0.335-10.556-0.335-15.825 0h-227.235c-11.794 0-21.354 9.56-21.354 21.354s9.56 21.354 21.354 21.354h140.886l-211.38 211.38c-48.368 48.368-48.368 126.788 0 175.156l303.481 303.481c48.368 48.368 126.788 48.368 175.156 0l218.064-218.064c48.368-48.368 48.368-126.788 0-175.156l-296.797-296.797zM254.544 385.772l332.822-332.822 243.538 243.538c31.69 31.69 31.69 83.068 0 114.758l-218.064 218.064c-31.69 31.69-83.068 31.69-114.758 0l-243.538-243.538z" />
<glyph unicode="&#xe968;" glyph-name="eye-dropper" data-tags="eye-dropper" d="M674.489 375.221l-97.926 97.926-55.217-55.217 27.609-27.609c8.339-8.339 8.339-21.86 0-30.199s-21.86-8.339-30.199 0l-27.609 27.609-55.217-55.217 27.609-27.609c8.339-8.339 8.339-21.86 0-30.199s-21.86-8.339-30.199 0l-27.609 27.609-55.217-55.217 27.609-27.609c8.339-8.339 8.339-21.86 0-30.199s-21.86-8.339-30.199 0l-27.609 27.609-55.217-55.217 27.609-27.609c8.339-8.339 8.339-21.86 0-30.199s-21.86-8.339-30.199 0l-27.551 27.551c-13.744-15.035-21.412-34.702-21.412-55.16 0-5.664-2.25-11.095-6.254-15.1l-12.509-12.509c-15.332-15.332-23.945-36.126-23.945-57.808 0-11.794 9.56-21.354 21.354-21.354 21.682 0 42.476 8.613 57.808 23.945l12.509 12.509c4.005 4.005 9.436 6.254 15.1 6.254 21.682 0 42.476 8.613 57.808 23.945l339.076 339.076zM706.68 347.013l-341.068-341.068c-21.167-21.167-49.172-33.922-78.823-36.115l-6.593-6.593c-23.341-23.341-54.999-36.454-88.008-36.454-35.381 0-64.063 28.682-64.063 64.063 0 33.009 13.113 64.666 36.454 88.008l6.593 6.593c2.193 29.651 14.949 57.656 36.115 78.823l341.068 341.068c-17.964 31.244-13.594 71.822 13.108 98.524s67.284 31.072 98.527 13.106l45.778 45.761c43.729 43.713 114.613 43.707 158.334-0.014 43.714-43.714 43.714-114.588-0.001-158.303l-45.787-45.77c17.962-31.244 13.592-71.82-13.11-98.521s-67.281-31.071-98.524-13.108v0zM790.108 490.834l43.785 43.769c27.045 27.045 27.045 70.877 0.010 97.913-27.044 27.044-70.891 27.048-97.941 0.009l-43.781-43.765 97.926-97.926zM591.663 573.663c-15.248-15.248-15.248-39.969 0-55.217l128.125-128.125c15.248-15.248 39.969-15.248 55.217 0s15.248 39.969 0 55.217l-128.125 128.125c-15.248 15.248-39.969 15.248-55.217 0z" />
<glyph unicode="&#xe96b;" glyph-name="magic-wand" data-tags="magic-wand" d="M662.618 552.148c-0.723-1.047-1.549-2.043-2.479-2.975-25.185-25.223-25.159-66.051 0.085-91.342 23.155-23.103 59.53-24.872 84.71-5.337l30.457 30.504c-47.149 6.499-84.473 43.784-91.032 90.914l-21.741-21.763zM599.555 489.019l-409.209-409.638c-25.185-25.223-25.159-66.051 0.085-91.342 25.121-25.064 65.804-25.019 90.874 0.107l408.714 409.349c-21.94 3.216-43.080 13.259-59.993 30.134-17.255 17.287-27.413 38.955-30.472 61.391v0zM784.266 431.441c-0.825-1.303-1.805-2.536-2.94-3.675-2.527-2.533-5.151-4.914-7.859-7.141l-461.934-462.651c-41.725-41.818-109.449-41.894-151.299-0.138-41.909 41.988-41.951 109.818-0.107 151.724l553.818 554.398c0.856 0.857 1.766 1.626 2.72 2.306 19.138 18.141 44.989 29.269 73.44 29.269 58.968 0 106.771-47.803 106.771-106.771 0-28.251-10.972-53.939-28.886-73.035-0.69-0.976-1.47-1.907-2.343-2.781l-81.38-81.507zM726.042 140.325h21.354c11.794 0 21.354-9.56 21.354-21.354s-9.56-21.354-21.354-21.354h-21.354v-23.983c0-11.794-9.56-21.354-21.354-21.354s-21.354 9.56-21.354 21.354v23.983h-21.354c-11.794 0-21.354 9.56-21.354 21.354s9.56 21.354 21.354 21.354h21.354v21.354c0 11.794 9.56 21.354 21.354 21.354s21.354-9.56 21.354-21.354v-21.354zM427.084 652.825v21.354c0 11.794 9.56 21.354 21.354 21.354s21.354-9.56 21.354-21.354v-21.354h21.354c11.794 0 21.354-9.56 21.354-21.354s-9.56-21.354-21.354-21.354h-21.354v-21.354c0-11.794-9.56-21.354-21.354-21.354s-21.354 9.56-21.354 21.354v21.354h-21.354c-11.794 0-21.354 9.56-21.354 21.354s9.56 21.354 21.354 21.354h21.354zM939.585 311.158h21.354c11.794 0 21.354-9.56 21.354-21.354s-9.56-21.354-21.354-21.354h-21.354v-21.354c0-11.794-9.56-21.354-21.354-21.354s-21.354 9.56-21.354 21.354v21.354h-21.354c-11.794 0-21.354 9.56-21.354 21.354s9.56 21.354 21.354 21.354h21.354v21.354c0 11.794 9.56 21.354 21.354 21.354s21.354-9.56 21.354-21.354v-21.354zM790.105 524.7c35.381 0 64.063 28.682 64.063 64.063s-28.682 64.063-64.063 64.063c-35.381 0-64.063-28.682-64.063-64.063s28.682-64.063 64.063-64.063z" />
<glyph unicode="&#xe96c;" glyph-name="marker" data-tags="marker" d="M332.224 34.151l-96.731 96.731c-38.478-45.099-61.11-101.681-64.276-161.007 59.326 3.165 115.908 25.797 161.007 64.276v0zM265.096 161.679l97.926-97.926 482.516 482.516c11.675 11.675 11.675 30.604 0 42.279l-55.646 55.646c-11.675 11.675-30.604 11.675-42.279 0l-482.516-482.516zM631.741 588.722c-31.824 29.552-81.591 28.844-112.556-2.121l-141.064-141.064c-8.339-8.339-21.86-8.339-30.199 0s-8.339 21.86 0 30.199l141.064 141.064c47.646 47.646 124.452 48.357 172.969 2.135l55.458 55.458c28.354 28.354 74.325 28.354 102.678 0l55.646-55.646c28.354-28.354 28.354-74.325 0-102.678l-497.615-497.615c-58.696-58.696-138.305-91.672-221.314-91.672h-7.327c-11.794 0-21.354 9.56-21.354 21.354v7.327c0 83.009 32.975 162.618 91.672 221.314l411.944 411.944z" />
<glyph unicode="&#xe96d;" glyph-name="paint-bucket" data-tags="paint-bucket" d="M422.868 601.067c44.846 18.447 98.323 9.455 134.754-26.974l175.356-175.356c43.537-43.537 47.886-111.42 13.048-159.821-1.534-3.697-4.078-6.87-7.286-9.175-1.838-2.102-3.758-4.157-5.762-6.161l-218.064-218.064c-48.368-48.368-126.788-48.368-175.156 0l-175.356 175.356c-15.262 15.262-25.709 33.517-31.339 52.876-2.932 3.657-4.686 8.298-4.686 13.349 0 1.944 0.259 3.827 0.747 5.617-4.677 36.713 7.083 75.12 35.278 103.315l6.684 6.684v204.697c0 70.761 57.364 128.125 128.125 128.125 59.114 0 108.877-40.033 123.659-94.466zM384.218 575.812c-4.221 43.23-40.67 77.013-85.009 77.013-47.174 0-85.416-38.242-85.416-85.416v-161.988l168.672 168.672c0.581 0.581 1.164 1.153 1.754 1.72zM427.335 555.533v-180.312c0-11.794-9.56-21.354-21.354-21.354s-21.354 9.56-21.354 21.354v140.634l-190.027-190.027c-15.844-15.844-23.767-36.612-23.767-57.379h543.585c19.403 31.296 15.522 72.924-11.64 100.087l-175.356 175.356c-27.163 27.163-68.791 31.043-100.087 11.64zM674.74 225.742h-491.78c3.233-5.215 7.114-10.144 11.64-14.67l175.356-175.356c31.69-31.69 83.068-31.69 114.758 0l190.027 190.027zM714.597 113.968l60.399 62.545c8.395 8.693 22.327 8.693 30.722 0l60.399-62.545c41.348-42.818 41.348-111.94 0-154.757-41.753-43.236-109.766-43.236-151.519 0-41.348 42.818-41.348 111.94 0 154.757zM745.319 84.3c-25.367-26.268-25.367-69.155 0-95.422 24.961-25.849 65.114-25.849 90.076 0 25.367 26.268 25.367 69.155 0 95.422l-45.038 46.639-45.038-46.639z" />
<glyph unicode="&#xe96f;" glyph-name="palette" data-tags="palette" d="M512.5 695.534c-212.284 0-384.375-172.091-384.375-384.375s172.091-384.375 384.375-384.375h21.354c15.301 0 28.639 10.414 32.35 25.259 5.376 21.505 0.474 42.934-12.875 58.953l-78.588 94.306c-10.365 12.438-3.659 31.435 12.217 34.61l259.567 51.914c87.422 17.484 150.35 94.244 150.35 183.397 0 176.904-143.409 320.313-320.313 320.313h-64.063zM530.527 105.070l55.612-66.734c22.075-26.49 30.18-61.924 21.817-95.377-8.783-35.132-39.203-58.884-74.102-58.884h-21.354c-235.871 0-427.084 191.212-427.084 427.084s191.212 427.084 427.084 427.084h64.063c200.491 0 363.022-162.53 363.022-363.022 0-109.512-77.297-203.799-184.682-225.276l-224.375-44.875zM768.751 396.575c23.587 0 42.709 19.122 42.709 42.709s-19.122 42.709-42.709 42.709c-23.587 0-42.709-19.122-42.709-42.709s19.122-42.709 42.709-42.709zM597.917 524.7c23.587 0 42.709 19.122 42.709 42.709s-19.122 42.709-42.709 42.709c-23.587 0-42.709-19.122-42.709-42.709s19.122-42.709 42.709-42.709zM384.375 481.992c23.587 0 42.709 19.122 42.709 42.709s-19.122 42.709-42.709 42.709c-23.587 0-42.709-19.122-42.709-42.709s19.122-42.709 42.709-42.709zM256.25 311.158c23.587 0 42.709 19.122 42.709 42.709s-19.122 42.709-42.709 42.709c-23.587 0-42.709-19.122-42.709-42.709s19.122-42.709 42.709-42.709z" />
<glyph unicode="&#xe971;" glyph-name="paste" data-tags="paste" d="M683.334 481.949h-234.896c-35.381 0-64.063-28.682-64.063-64.063v-384.375c0-35.381 28.682-64.063 64.063-64.063h298.959c35.381 0 64.063 28.682 64.063 64.063v320.313h-106.771c-11.794 0-21.354 9.56-21.354 21.354v106.771zM854.167 373.984v-340.472c0-58.968-47.803-106.771-106.771-106.771h-298.959c-58.968 0-106.771 47.803-106.771 106.771v384.375c0 58.968 47.803 106.771 106.771 106.771h255.055c5.67 0.359 11.57-1.53 16.295-6.254l128.125-128.125c4.724-4.724 6.614-10.625 6.254-16.295zM726.042 396.533h55.217l-55.217 55.217v-55.217zM491.147 268.45c-11.794 0-21.354 9.56-21.354 21.354s9.56 21.354 21.354 21.354h213.542c11.794 0 21.354-9.56 21.354-21.354s-9.56-21.354-21.354-21.354h-213.542zM491.147 183.033c-11.794 0-21.354 9.56-21.354 21.354s9.56 21.354 21.354 21.354h213.542c11.794 0 21.354-9.56 21.354-21.354s-9.56-21.354-21.354-21.354h-213.542zM491.147 97.617c-11.794 0-21.354 9.56-21.354 21.354s9.56 21.354 21.354 21.354h170.834c11.794 0 21.354-9.56 21.354-21.354s-9.56-21.354-21.354-21.354h-170.834zM576.563 652.825c-11.794 0-21.354 9.56-21.354 21.354s9.56 21.354 21.354 21.354c58.968 0 106.771-47.803 106.771-106.771v-64.063c0-11.794-9.56-21.354-21.354-21.354s-21.354 9.56-21.354 21.354v64.063c0 35.381-28.682 64.063-64.063 64.063zM277.604 695.534c11.794 0 21.354-9.56 21.354-21.354s-9.56-21.354-21.354-21.354c-35.381 0-64.063-28.682-64.063-64.063v-384.375c0-35.381 28.682-64.063 64.063-64.063h64.063c11.794 0 21.354-9.56 21.354-21.354s-9.56-21.354-21.354-21.354h-64.063c-58.968 0-106.771 47.803-106.771 106.771v384.375c0 58.968 47.803 106.771 106.771 106.771zM384.375 674.18c0-11.794-9.56-21.354-21.354-21.354s-21.354 9.56-21.354 21.354c0 35.381 28.682 64.063 64.063 64.063h42.709c35.381 0 64.063-28.682 64.063-64.063 0-11.794-9.56-21.354-21.354-21.354s-21.354 9.56-21.354 21.354c0 11.794-9.56 21.354-21.354 21.354h-42.709c-11.794 0-21.354-9.56-21.354-21.354z" />
<glyph unicode="&#xe979;" glyph-name="stamp" data-tags="stamp" d="M433.080 225.742h158.842l-33.586 134.344c-14.586-4.053-29.957-6.219-45.835-6.219s-31.249 2.166-45.835 6.219l-33.586-134.344zM389.057 225.742l37.781 151.123c-50.927 29.573-85.17 84.706-85.17 147.836 0 94.349 76.485 170.834 170.834 170.834s170.834-76.485 170.834-170.834c0-63.131-34.244-118.263-85.17-147.836l37.781-151.123h154.161c58.968 0 106.771-47.803 106.771-106.771v-85.416c0-11.794-9.56-21.354-21.354-21.354h-726.042c-11.794 0-21.354 9.56-21.354 21.354v85.416c0 58.968 47.803 106.771 106.771 106.771h154.161zM512.5 396.575c70.761 0 128.125 57.364 128.125 128.125s-57.364 128.125-128.125 128.125c-70.761 0-128.125-57.364-128.125-128.125s57.364-128.125 128.125-128.125zM854.167 54.908v64.063c0 35.381-28.682 64.063-64.063 64.063h-555.209c-35.381 0-64.063-28.682-64.063-64.063v-64.063h683.334zM149.479-73.217c-11.794 0-21.354 9.56-21.354 21.354s9.56 21.354 21.354 21.354h726.042c11.794 0 21.354-9.56 21.354-21.354s-9.56-21.354-21.354-21.354h-726.042z" />
<glyph unicode="&#xe97b;" glyph-name="activity" data-tags="activity" d="M265.514 311.158h-158.743c-11.794 0-21.354 9.56-21.354 21.354s9.56 21.354 21.354 21.354h170.834c7.501 0 14.452-3.936 18.311-10.367l107.202-178.67 196.714 432.771c7.433 16.353 30.507 16.78 38.54 0.714l122.223-244.446h157.636c11.794 0 21.354-9.56 21.354-21.354s-9.56-21.354-21.354-21.354h-170.834c-8.088 0-15.482 4.569-19.1 11.805l-108.108 216.215-195.019-429.043c-7.121-15.665-28.897-16.907-37.751-2.15l-121.905 203.174z" />
<glyph unicode="&#xe97e;" glyph-name="bolt" data-tags="bolt" d="M506.505 225.742h-271.608c-17.452 0-27.535 19.799-17.27 33.914l341.667 469.792c13.805 18.984 43.68 5.033 37.986-17.739l-78.783-315.134h271.608c17.452 0 27.535-19.799 17.27-33.914l-341.667-469.792c-13.805-18.984-43.68-5.033-37.986 17.739l78.783 315.134zM529.191 615.446l-252.36-346.995h257.024c13.893 0 24.086-13.056 20.716-26.533l-58.761-235.046 252.36 346.995h-257.024c-13.893 0-24.086 13.056-20.716 26.533l58.761 235.046z" />
<glyph unicode="&#xe983;" glyph-name="code" data-tags="code" d="M336.526 260.993c7.675-8.955 6.638-22.435-2.316-30.11s-22.435-6.638-30.11 2.316l-128.125 149.479c-6.855 7.997-6.855 19.797 0 27.794l128.125 149.479c7.675 8.955 21.156 9.992 30.11 2.316s9.992-21.156 2.316-30.11l-116.213-135.582 116.213-135.582zM382.372-18.185c-4.987-10.687-17.694-15.308-28.381-10.32s-15.308 17.694-10.32 28.381l298.959 640.626c4.987 10.687 17.694 15.308 28.381 10.32s15.308-17.694 10.32-28.381l-298.959-640.626zM688.475 361.323c-7.675 8.955-6.638 22.435 2.316 30.11s22.435 6.638 30.11-2.316l128.125-149.479c6.855-7.997 6.855-19.797 0-27.794l-128.125-149.479c-7.675-8.955-21.156-9.992-30.11-2.316s-9.992 21.156-2.316 30.11l116.213 135.582-116.213 135.582z" />
<glyph unicode="&#xe985;" glyph-name="database" data-tags="database" d="M128.125 508.004v-111.429c0-14.675 36.458-37.358 102.916-54.848 73.686-19.391 174.115-30.57 281.46-30.57s207.774 11.179 281.46 30.57c66.459 17.489 102.916 40.172 102.916 54.848v111.429c-68.916-43.203-214.261-68.72-384.375-68.72s-315.459 25.517-384.375 68.72v0zM85.416 567.409c0 78.294 189.357 128.125 427.084 128.125s427.084-49.831 427.084-128.125v-512.5c0-78.294-189.357-128.125-427.084-128.125s-427.084 49.831-427.084 128.125v512.5zM896.876 337.17c-68.916-43.203-214.261-68.72-384.375-68.72s-315.459 25.517-384.375 68.72v-111.429c0-14.675 36.458-37.358 102.916-54.848 73.686-19.391 174.115-30.57 281.46-30.57s207.774 11.179 281.46 30.57c66.459 17.489 102.916 40.172 102.916 54.848v111.429zM896.876 166.337c-68.916-43.203-214.261-68.72-384.375-68.72s-315.459 25.517-384.375 68.72v-111.429c0-14.675 36.458-37.358 102.916-54.848 73.686-19.391 174.115-30.57 281.46-30.57s207.774 11.179 281.46 30.57c66.459 17.489 102.916 40.172 102.916 54.848v111.429zM512.5 481.992c107.345 0 207.774 11.179 281.46 30.57 66.459 17.489 102.916 40.172 102.916 54.848s-36.458 37.358-102.916 54.848c-73.686 19.391-174.115 30.57-281.46 30.57s-207.774-11.179-281.46-30.57c-66.459-17.489-102.916-40.172-102.916-54.848s36.458-37.358 102.916-54.848c73.686-19.391 174.115-30.57 281.46-30.57z" />
<glyph unicode="&#xe986;" glyph-name="deploy" data-tags="deploy" d="M382.37 55.563c-9.638-49.061-52.88-86.071-104.766-86.071h-85.416c-11.794 0-21.354 9.56-21.354 21.354v85.416c0 51.886 37.010 95.128 86.071 104.766l0.504 14.64c0.854 24.754 3.403 49.051 7.532 72.781h-158.171c-15.108 0-25.438 15.258-19.827 29.285l85.416 213.542c3.243 8.107 11.095 13.423 19.827 13.423h192.188c1.084 0 2.149-0.081 3.19-0.236 100.553 114.633 249.845 184.867 414.126 179.202 26.080-0.899 52.059-3.737 77.719-8.488 8.695-1.611 15.498-8.413 17.109-17.109 35.044-189.239-35.848-373.564-170.702-491.921 0.148-1.016 0.225-2.056 0.225-3.113v-192.188c0-8.732-5.316-16.584-13.423-19.827l-213.542-85.416c-14.027-5.61-29.285 4.72-29.285 19.827v158.238c-24.052-4.217-48.372-6.757-72.781-7.598l-14.64-0.504zM341.133 67.951l-71.839 71.839c-31.455-4.075-55.751-30.964-55.751-63.528v-64.063h64.063c32.564 0 59.454 24.297 63.528 55.751v0zM512.5 72.973v-136.004l170.834 68.334v147.27c-50.486-35.826-107.994-63.18-170.834-79.6v0zM274.222 311.158c16.282 62.291 43.639 119.949 79.777 170.834h-147.353l-68.334-170.834h135.91zM371.559 97.923l23.979 0.827c23.965 0.827 47.836 3.433 71.414 7.8 257.817 47.744 429.741 291.734 390.054 549.109-18.803 2.889-37.766 4.667-56.787 5.322-267.006 9.207-490.92-199.78-500.127-466.785l-0.827-23.979 72.294-72.294zM597.917 268.45c-70.761 0-128.125 57.364-128.125 128.125s57.364 128.125 128.125 128.125c70.761 0 128.125-57.364 128.125-128.125s-57.364-128.125-128.125-128.125zM597.917 311.158c47.174 0 85.416 38.242 85.416 85.416s-38.242 85.416-85.416 85.416c-47.174 0-85.416-38.242-85.416-85.416s38.242-85.416 85.416-85.416z" />
<glyph unicode="&#xe98f;" glyph-name="lan" data-tags="lan" d="M384.375 674.18v-170.834c0-11.794 9.56-21.354 21.354-21.354h256.25c11.794 0 21.354 9.56 21.354 21.354v170.834c0 11.794-9.56 21.354-21.354 21.354h-256.25c-11.794 0-21.354-9.56-21.354-21.354zM555.209 311.158h149.964c35.381 0 64.063-28.682 64.063-64.063v-21.354h106.286c35.381 0 64.063-28.682 64.063-64.063v-170.834c0-35.381-28.682-64.063-64.063-64.063h-42.709c11.794 0 21.354-9.56 21.354-21.354s-9.56-21.354-21.354-21.354h-170.834c-11.794 0-21.354 9.56-21.354 21.354s9.56 21.354 21.354 21.354h-42.709c-35.381 0-64.063 28.682-64.063 64.063v170.834c0 35.381 28.682 64.063 64.063 64.063h107.256v21.354c0 11.794-9.56 21.354-21.354 21.354h-342.152c-11.794 0-21.354-9.56-21.354-21.354v-21.354h106.771c35.381 0 64.063-28.682 64.063-64.063v-170.834c0-35.381-28.682-64.063-64.063-64.063h-42.709c11.794 0 21.354-9.56 21.354-21.354s-9.56-21.354-21.354-21.354h-170.834c-11.794 0-21.354 9.56-21.354 21.354s9.56 21.354 21.354 21.354h-42.709c-35.381 0-64.063 28.682-64.063 64.063v170.834c0 35.381 28.682 64.063 64.063 64.063h106.771v21.354c0 35.381 28.682 64.063 64.063 64.063h149.479v85.416h-64.063c-11.794 0-21.354 9.56-21.354 21.354s9.56 21.354 21.354 21.354h-42.709c-35.381 0-64.063 28.682-64.063 64.063v170.834c0 35.381 28.682 64.063 64.063 64.063h256.25c35.381 0 64.063-28.682 64.063-64.063v-170.834c0-35.381-28.682-64.063-64.063-64.063h-42.709c11.794 0 21.354-9.56 21.354-21.354s-9.56-21.354-21.354-21.354h-64.063v-85.416zM747.535 183.033h-128.263c-11.794 0-21.354-9.56-21.354-21.354v-170.834c0-11.794 9.56-21.354 21.354-21.354h256.25c11.794 0 21.354 9.56 21.354 21.354v170.834c0 11.794-9.56 21.354-21.354 21.354h-127.293c-0.115-0.002-0.231-0.003-0.346-0.003s-0.231 0.001-0.346 0.003v0zM170.834 161.679v-170.834c0-11.794 9.56-21.354 21.354-21.354h256.25c11.794 0 21.354 9.56 21.354 21.354v170.834c0 11.794-9.56 21.354-21.354 21.354h-256.25c-11.794 0-21.354-9.56-21.354-21.354z" />
<glyph unicode="&#xe992;" glyph-name="web" data-tags="web" d="M149.996 183.033h199.012c-4.801 40.473-7.341 83.519-7.341 128.125s2.54 87.653 7.341 128.125h-199.012c-14.165-40.075-21.871-83.2-21.871-128.125s7.708-88.050 21.871-128.125v0zM168.080 140.325c50.84-102.301 145.915-178.74 260.2-204.286-33.274 45.293-58.76 117.284-73.213 204.286h-186.988zM875.004 183.033c14.165 40.075 21.871 83.2 21.871 128.125s-7.708 88.050-21.871 128.125h-199.012c4.801-40.473 7.341-83.519 7.341-128.125s-2.54-87.653-7.341-128.125h199.012zM856.921 140.325h-186.988c-14.453-87.003-39.938-158.993-73.213-204.286 114.285 25.547 209.36 101.986 260.2 204.286v0zM392.251 183.033h240.499c5.058 40.044 7.876 83.16 7.876 128.125s-2.818 88.081-7.876 128.125h-240.499c-5.058-40.044-7.876-83.16-7.876-128.125s2.818-88.081 7.876-128.125v0zM398.682 140.325c22.302-126.751 67.611-213.542 113.818-213.542s91.516 86.791 113.818 213.542h-227.637zM168.080 481.992h186.988c14.453 87.003 39.938 158.993 73.213 204.286-114.285-25.547-209.36-101.986-260.2-204.286v0zM856.921 481.992c-50.84 102.301-145.915 178.74-260.2 204.286 33.274-45.293 58.76-117.284 73.213-204.286h186.988zM398.682 481.992h227.637c-22.302 126.751-67.611 213.542-113.818 213.542s-91.516-86.791-113.818-213.542v0zM512.5-115.926c-235.871 0-427.084 191.212-427.084 427.084s191.212 427.084 427.084 427.084c235.871 0 427.084-191.212 427.084-427.084s-191.212-427.084-427.084-427.084z" />
<glyph unicode="&#xe996;" glyph-name="window" data-tags="window" d="M897.179 33.198c0-58.968-47.803-106.771-106.771-106.771h-555.512c-58.968 0-106.771 47.803-106.771 106.771v555.565c0 58.968 47.803 106.771 106.771 106.771h555.512c58.968 0 106.771-47.803 106.771-106.771v-555.565zM854.471 524.7v64.063c0 35.381-28.682 64.063-64.063 64.063h-555.512c-35.381 0-64.063-28.682-64.063-64.063v-64.063h683.638zM854.471 481.992h-683.638v-448.793c0-35.381 28.682-64.063 64.063-64.063h555.512c35.381 0 64.063 28.682 64.063 64.063v448.793zM213.542 610.117h42.709v-42.709h-42.709v42.709zM298.959 610.117h42.709v-42.709h-42.709v42.709zM384.375 610.117h42.709v-42.709h-42.709v42.709z" />
<glyph unicode="&#xe9a6;" glyph-name="desktop" data-tags="desktop" d="M469.792 12.199h85.416v85.416h-85.416v-85.416zM427.084 12.199v85.416h-234.896c-58.968 0-106.771 47.803-106.771 106.771v341.667c0 58.968 47.803 106.771 106.771 106.771h640.626c58.968 0 106.771-47.803 106.771-106.771v-341.667c0-58.968-47.803-106.771-106.771-106.771h-234.896v-85.416h64.063c11.794 0 21.354-9.56 21.354-21.354s-9.56-21.354-21.354-21.354h-298.959c-11.794 0-21.354 9.56-21.354 21.354s9.56 21.354 21.354 21.354h64.063zM192.188 610.117c-35.381 0-64.063-28.682-64.063-64.063v-341.667c0-35.381 28.682-64.063 64.063-64.063h640.626c35.381 0 64.063 28.682 64.063 64.063v341.667c0 35.381-28.682 64.063-64.063 64.063h-640.626z" />
<glyph unicode="&#xe9a7;" glyph-name="devices" data-tags="devices" d="M597.917 54.908h-405.729c-58.968 0-106.771 47.803-106.771 106.771 0 11.794 9.56 21.354 21.354 21.354h64.063v363.506c0 58.968 47.803 106.771 106.771 106.771h470.164c58.968 0 106.771-47.803 106.771-106.771v-64.548h20.982c35.381 0 64.063-28.682 64.063-64.063v-427.529c0-35.381-28.682-64.063-64.063-64.063h-213.542c-35.381 0-64.063 28.682-64.063 64.063v64.507zM597.917 97.617v42.709h-466.147c8.795-24.881 32.524-42.709 60.417-42.709h405.729zM597.917 183.033v42.709h-320.313c-11.794 0-21.354 9.56-21.354 21.354v298.959c0 11.794 9.56 21.354 21.354 21.354h469.792c11.794 0 21.354-9.56 21.354-21.354v-64.063h43.080v64.548c0 35.381-28.682 64.063-64.063 64.063h-470.164c-35.381 0-64.063-28.682-64.063-64.063v-363.506h384.375zM597.917 268.45v149.479c0 35.381 28.682 64.063 64.063 64.063h64.063v42.709h-427.084v-256.25h298.959zM661.979 439.283c-11.794 0-21.354-9.56-21.354-21.354v-427.529c0-11.794 9.56-21.354 21.354-21.354h213.542c11.794 0 21.354 9.56 21.354 21.354v427.529c0 11.794-9.56 21.354-21.354 21.354h-213.542zM747.397 12.199c-11.794 0-21.354 9.56-21.354 21.354s9.56 21.354 21.354 21.354h42.709c11.794 0 21.354-9.56 21.354-21.354s-9.56-21.354-21.354-21.354h-42.709z" />
<glyph unicode="&#xe9aa;" glyph-name="hard-drive" data-tags="hard-drive" d="M85.416 33.554v555.209c0 58.968 47.803 106.771 106.771 106.771h640.626c58.968 0 106.771-47.803 106.771-106.771v-555.209c0-58.968-47.803-106.771-106.771-106.771h-640.626c-58.968 0-106.771 47.803-106.771 106.771zM128.125 204.395c17.844 13.404 40.026 21.347 64.063 21.347h640.626c24.036 0 46.218-7.943 64.063-21.347v384.367c0 35.381-28.682 64.063-64.063 64.063h-640.626c-35.381 0-64.063-28.682-64.063-64.063v-384.367zM128.125 33.554c0-35.381 28.682-64.063 64.063-64.063h640.626c35.381 0 64.063 28.682 64.063 64.063v85.416c0 35.381-28.682 64.063-64.063 64.063h-640.626c-35.381 0-64.063-28.682-64.063-64.063v-85.416zM747.397 140.325h85.416c11.794 0 21.354-9.56 21.354-21.354v-85.416c0-11.794-9.56-21.354-21.354-21.354h-85.416c-11.794 0-21.354 9.56-21.354 21.354v85.416c0 11.794 9.56 21.354 21.354 21.354zM768.751 97.617v-42.709h42.709v42.709h-42.709zM234.896 54.908c-11.794 0-21.354 9.56-21.354 21.354s9.56 21.354 21.354 21.354h256.25c11.794 0 21.354-9.56 21.354-21.354s-9.56-21.354-21.354-21.354h-256.25z" />
<glyph unicode="&#xe9ab;" glyph-name="headphone" data-tags="headphone" d="M256.25 97.617v256.25h-64.063c-35.381 0-64.063-28.682-64.063-64.063v-128.125c0-35.381 28.682-64.063 64.063-64.063h64.063zM594.272-30.508h91.559c27.575 0 52.055 17.645 60.775 43.804l9.735 29.203c1.443 4.331 3.23 8.476 5.324 12.41h-14.269c-11.794 0-21.354 9.56-21.354 21.354v298.959c0 11.794 9.56 21.354 21.354 21.354h21.354v43.375c0 141.523-114.727 256.25-256.25 256.25s-256.25-114.727-256.25-256.25v-43.375h21.354c11.794 0 21.354-9.56 21.354-21.354v-298.959c0-11.794-9.56-21.354-21.354-21.354h-85.416c-58.968 0-106.771 47.803-106.771 106.771v128.125c0 58.968 47.803 106.771 106.771 106.771h21.354v43.375c0 165.11 133.849 298.959 298.959 298.959s298.959-133.849 298.959-298.959v-43.375h21.354c58.968 0 106.771-47.803 106.771-106.771v-128.125c0-58.968-47.803-106.771-106.771-106.771-16.314 0-30.797-10.439-35.955-25.915l-9.735-29.203c-14.533-43.599-55.334-73.007-101.292-73.007h-91.559c-8.795-24.881-32.524-42.709-60.417-42.709h-42.709c-35.381 0-64.063 28.682-64.063 64.063s28.682 64.063 64.063 64.063h42.709c27.893 0 51.622-17.826 60.417-42.709v0zM768.751 353.867v-256.25h64.063c35.381 0 64.063 28.682 64.063 64.063v128.125c0 35.381-28.682 64.063-64.063 64.063h-64.063zM469.792-51.863c0-11.794 9.56-21.354 21.354-21.354h42.709c11.794 0 21.354 9.56 21.354 21.354s-9.56 21.354-21.354 21.354h-42.709c-11.794 0-21.354-9.56-21.354-21.354z" />
<glyph unicode="&#xe9ac;" glyph-name="imac" data-tags="imac" d="M440.281 12.199h144.438l-21.177 42.352h-102.086l-21.177-42.352zM406.16-30.508c-0.297-0.006-0.595-0.006-0.892 0h-42.246c-11.794 0-21.354 9.56-21.354 21.354s9.56 21.354 21.354 21.354h29.511l21.177 42.352h-221.52c-58.968 0-106.771 47.803-106.771 106.771v384.731c0.809 59.717 48.287 106.745 106.759 106.771l640.629 0.355c59.015 0 106.817-47.803 106.817-106.773l-0.037-385.085c0-58.968-47.803-106.771-106.771-106.771h-221.52l21.177-42.352h29.511c11.794 0 21.354-9.56 21.354-21.354s-9.56-21.354-21.354-21.354h-42.246c-0.298-0.006-0.596-0.006-0.892 0h-212.683zM580.452 97.26h252.361c35.381 0 64.063 28.682 64.063 64.065l0.037 385.085c0 35.381-28.682 64.063-64.063 64.063l-640.654-0.355c-35.37-0.015-64.035-28.693-64.035-64.063 0-0.242-0.009-92.778-0.027-277.604h768.741v-42.709h-768.745l-0.006-64.418c0-35.381 28.682-64.063 64.063-64.063h252.361c2.545 0.473 5.189 0.487 7.801 0h120.3c2.612 0.487 5.255 0.473 7.801 0v0zM491.147 140.325c-11.794 0-21.354 9.56-21.354 21.354s9.56 21.354 21.354 21.354h42.709c11.794 0 21.354-9.56 21.354-21.354s-9.56-21.354-21.354-21.354h-42.709z" />
<glyph unicode="&#xe9b5;" glyph-name="mac-pro" data-tags="mac-pro" d="M768.751 12.199v597.917h-512.5v-597.917h512.5zM768.751-30.508h-512.5v-21.354c0-35.381 28.682-64.063 64.063-64.063h384.375c35.381 0 64.063 28.682 64.063 64.063v21.354zM768.751 652.825v21.354c0 35.381-28.682 64.063-64.063 64.063h-384.375c-35.381 0-64.063-28.682-64.063-64.063v-21.354h512.5zM320.313 780.95h384.375c58.968 0 106.771-47.803 106.771-106.771v-726.042c0-58.968-47.803-106.771-106.771-106.771h-384.375c-58.968 0-106.771 47.803-106.771 106.771v726.042c0 58.968 47.803 106.771 106.771 106.771zM320.313 524.7c-11.794 0-21.354 9.56-21.354 21.354s9.56 21.354 21.354 21.354h384.375c11.794 0 21.354-9.56 21.354-21.354s-9.56-21.354-21.354-21.354h-384.375zM320.313 439.283c-11.794 0-21.354 9.56-21.354 21.354s9.56 21.354 21.354 21.354h384.375c11.794 0 21.354-9.56 21.354-21.354s-9.56-21.354-21.354-21.354h-384.375zM320.313 54.908c-11.794 0-21.354 9.56-21.354 21.354s9.56 21.354 21.354 21.354h42.709c11.794 0 21.354-9.56 21.354-21.354s-9.56-21.354-21.354-21.354h-42.709zM320.313 140.325c-11.794 0-21.354 9.56-21.354 21.354s9.56 21.354 21.354 21.354h42.709c11.794 0 21.354-9.56 21.354-21.354s-9.56-21.354-21.354-21.354h-42.709zM341.667 225.742c-23.587 0-42.709 19.122-42.709 42.709s19.122 42.709 42.709 42.709c23.587 0 42.709-19.122 42.709-42.709s-19.122-42.709-42.709-42.709z" />
<glyph unicode="&#xe9b6;" glyph-name="macbook-pro" data-tags="macbook-pro" d="M939.585 97.617h-302.604c-8.795-24.881-32.524-42.709-60.417-42.709h-128.125c-27.893 0-51.622 17.826-60.417 42.709h-302.604v-64.063c0-11.794 9.56-21.354 21.354-21.354h811.459c11.794 0 21.354 9.56 21.354 21.354v64.063zM128.125 140.325v448.848c0 35.381 28.682 64.063 64.063 64.063h640.626c35.381 0 64.063-28.682 64.063-64.063v-448.848h64.063c11.794 0 21.354-9.56 21.354-21.354v-85.416c0-35.381-28.682-64.063-64.063-64.063h-811.459c-35.381 0-64.063 28.682-64.063 64.063v85.416c0 11.794 9.56 21.354 21.354 21.354h64.063zM170.834 140.325h234.896c11.794 0 21.354-9.56 21.354-21.354s9.56-21.354 21.354-21.354h128.125c11.794 0 21.354 9.56 21.354 21.354s9.56 21.354 21.354 21.354h234.896v448.848c0 11.794-9.56 21.354-21.354 21.354h-640.626c-11.794 0-21.354-9.56-21.354-21.354v-448.848z" />
<glyph unicode="&#xe9be;" glyph-name="printer" data-tags="printer" d="M811.46 54.241v-107.17c0-11.794-9.56-21.354-21.354-21.354h-555.21c-11.794 0-21.354 9.56-21.354 21.354v107.836h-64.063c-35.381 0-64.063 28.682-64.063 64.063v213.542c0 58.968 47.803 106.771 106.771 106.771h21.354v234.896c0 11.786 9.548 21.343 21.334 21.354l555.209 0.533c11.802 0.011 21.375-9.552 21.375-21.354v-235.429h21.354c58.968 0 106.771-47.803 106.771-106.771v-214.208c0-35.381-28.682-64.063-64.063-64.063h-64.062zM811.46 96.95h64.062c11.794 0 21.354 9.56 21.354 21.354v214.208c0 35.381-28.682 64.063-64.063 64.063h-21.354v-150.012c0-11.794-9.56-21.354-21.354-21.354h-555.209c-11.794 0-21.354 9.56-21.354 21.354v150.012h-21.354c-35.381 0-64.063-28.682-64.063-64.063v-213.542c0-11.794 9.56-21.354 21.354-21.354h64.063v64.063c0 11.794 9.56 21.354 21.354 21.354h555.21c11.794 0 21.354-9.56 21.354-21.354v-64.729zM768.751 418.035v235.303l-512.5-0.491v-384.929h512.5v150.12zM363.022 524.7c-11.794 0-21.354 9.56-21.354 21.354s9.56 21.354 21.354 21.354h298.959c11.794 0 21.354-9.56 21.354-21.354s-9.56-21.354-21.354-21.354h-298.959zM363.022 439.283c-11.794 0-21.354 9.56-21.354 21.354s9.56 21.354 21.354 21.354h298.959c11.794 0 21.354-9.56 21.354-21.354s-9.56-21.354-21.354-21.354h-298.959zM363.022 353.867c-11.794 0-21.354 9.56-21.354 21.354s9.56 21.354 21.354 21.354h213.542c11.794 0 21.354-9.56 21.354-21.354s-9.56-21.354-21.354-21.354h-213.542zM256.25 140.325v-171.899h512.501v171.899h-512.501z" />
<glyph unicode="&#xe9bf;" glyph-name="server-stack" data-tags="server-stack" d="M790.105 439.283c35.695 0 64.377 28.682 64.377 64.063v42.709c0 35.381-28.682 64.063-64.063 64.063h-555.523c-35.381 0-64.063-28.682-64.063-64.063v-42.709c0-35.381 28.682-64.063 64.063-64.063h555.209zM128.125 118.971c0 58.968 47.803 106.771 106.771 106.771h555.523c58.968 0 106.771-47.803 106.771-106.771v-42.709c0-58.968-47.803-106.771-106.771-106.771h-555.523c-58.968 0-106.771 47.803-106.771 106.771v42.709zM170.823 417.93c-25.927 19.48-42.698 50.49-42.698 85.416v42.709c0 58.968 47.803 106.771 106.771 106.771h555.523c58.968 0 106.771-47.803 106.771-106.771v-42.709c0-34.927-16.77-65.936-42.698-85.416 25.927-19.48 42.698-50.49 42.698-85.416v-42.709c0-58.968-47.803-106.771-106.771-106.771-12.108 0-21.668 9.56-21.668 21.354s9.56 21.354 21.354 21.354c35.695 0 64.377 28.682 64.377 64.063v42.709c0 35.381-28.682 64.063-64.063 64.063h-555.523c-35.381 0-64.063-28.682-64.063-64.063v-42.709c0-35.381 28.682-64.063 64.063-64.063 11.794 0 21.354-9.56 21.354-21.354s-9.56-21.354-21.354-21.354c-58.968 0-106.771 47.803-106.771 106.771v42.709c0 34.927 16.77 65.936 42.698 85.416zM170.834 118.971v-42.709c0-35.381 28.682-64.063 64.063-64.063h555.523c35.381 0 64.063 28.682 64.063 64.063v42.709c0 35.381-28.682 64.063-64.063 64.063h-555.523c-35.381 0-64.063-28.682-64.063-64.063zM234.896 481.992c-11.794 0-21.354 9.56-21.354 21.354s9.56 21.354 21.354 21.354h85.416c11.794 0 21.354-9.56 21.354-21.354s-9.56-21.354-21.354-21.354h-85.416zM234.896 268.45c-11.794 0-21.354 9.56-21.354 21.354s9.56 21.354 21.354 21.354h85.416c11.794 0 21.354-9.56 21.354-21.354s-9.56-21.354-21.354-21.354h-85.416zM234.896 54.908c-11.794 0-21.354 9.56-21.354 21.354s9.56 21.354 21.354 21.354h85.416c11.794 0 21.354-9.56 21.354-21.354s-9.56-21.354-21.354-21.354h-85.416z" />
<glyph unicode="&#xe9c8;" glyph-name="voice-assistant" data-tags="voice-assistant" d="M128.125 374.744v-213.065c0-77.505 170.941-149.479 384.375-149.479s384.375 71.975 384.375 149.479v213.065c-69.406-64.612-215.991-106.294-384.375-106.294s-314.97 41.683-384.375 106.294v0zM85.416 460.637c0 111.194 192.362 192.188 427.084 192.188s427.084-80.994 427.084-192.188v-298.959c0-111.194-192.362-192.188-427.084-192.188s-427.084 80.994-427.084 192.188v298.959zM512.5 311.158c213.434 0 384.375 71.975 384.375 149.479s-170.941 149.479-384.375 149.479c-213.434 0-384.375-71.975-384.375-149.479s170.941-149.479 384.375-149.479zM227.153 102.608c-10.969 4.332-16.35 16.736-12.018 27.705s16.736 16.35 27.705 12.018c35.729-14.11 77.718-25.364 123.729-33.043 11.632-1.942 19.489-12.946 17.547-24.578s-12.946-19.489-24.578-17.547c-48.859 8.155-93.736 20.183-132.384 35.446zM341.667 396.575c-45.781 0-85.416 26.424-85.416 64.063s39.636 64.063 85.416 64.063c45.781 0 85.416-26.424 85.416-64.063s-39.636-64.063-85.416-64.063zM341.667 439.283c24.98 0 42.709 11.819 42.709 21.354s-17.728 21.354-42.709 21.354c-24.98 0-42.709-11.819-42.709-21.354s17.728-21.354 42.709-21.354zM683.334 396.575c-45.781 0-85.416 26.424-85.416 64.063s39.636 64.063 85.416 64.063c45.781 0 85.416-26.424 85.416-64.063s-39.636-64.063-85.416-64.063zM683.334 439.283c24.98 0 42.709 11.819 42.709 21.354s-17.728 21.354-42.709 21.354c-24.98 0-42.709-11.819-42.709-21.354s17.728-21.354 42.709-21.354z" />
<glyph unicode="&#xe9f0;" glyph-name="bull-horn" data-tags="bull-horn" d="M213.615 233.006c-49.802 17.568-85.489 65.047-85.489 120.86 0 70.761 57.364 128.125 128.125 128.125h192.188c80.733 0 191.341 41.478 330.68 125.082 14.233 8.54 32.341-1.713 32.341-18.311v-108.906c48.736-9.893 85.416-52.981 85.416-104.635v-42.709c0-51.654-36.682-94.743-85.416-104.635v-108.906c0-16.598-18.108-26.851-32.341-18.311-139.34 83.604-249.948 125.082-330.68 125.082h-54.661c-6.505-7.945-9.401-15.024-9.401-21.354 0 2.894 1.121 1.96 9.55-2.254 23.603-11.802 33.158-19.764 33.158-40.454 0-15.027-4.947-24.015-15.354-35.165l-1.066-1.14c-4.348-4.659-4.913-5.654-4.934-9.238 0.010 1.747 0.283 1.644 7.808-1.312 0.819-0.321 0.819-0.321 1.671-0.655 22.709-8.904 33.229-16.808 33.229-37.906 0-20.526-9.673-39.873-27.609-57.808-65.143-65.143-123.181-74.816-160.992-18.1-30.144 45.216-45.066 122.419-46.222 232.652v0zM256.428 225.742c1.672-98.377 15.1-165.93 38.944-201.697 19.134-28.7 46.511-24.138 95.258 24.609 9.978 9.978 14.598 18.689 15.061 26.333-0.473-2.714-1.749-2.275-6.072-0.581-0.831 0.325-0.831 0.325-1.698 0.666-23.271 9.142-34.9 18.418-34.9 40.848 0 16.702 5.31 26.69 16.42 38.594l1.066 1.14c3.188 3.416 3.753 4.102 3.849 5.343-0.231-2.026-1.835-0.912-9.531 2.936-23.603 11.802-33.158 19.764-33.158 40.454 0 7.269 1.213 14.391 3.577 21.354h-88.817zM811.459 435.638v-163.543c24.881 8.795 42.709 32.524 42.709 60.417v42.709c0 27.893-17.826 51.622-42.709 60.417zM469.792 440.069v-172.404c79.913-5.748 179.334-43.021 298.959-111.427v395.258c-119.625-68.406-219.046-105.679-298.959-111.427v0zM427.084 268.45v170.834h-170.834c-47.174 0-85.416-38.242-85.416-85.416s38.242-85.416 85.416-85.416h170.834z" />
<glyph unicode="&#xe9f2;" glyph-name="credit-card" data-tags="credit-card" d="M896.876 396.575v42.709h-768.751v-42.709h768.751zM896.876 353.867h-768.751v-234.896c0-35.381 28.682-64.063 64.063-64.063h640.626c35.381 0 64.063 28.682 64.063 64.063v234.896zM896.876 481.992v21.354c0 35.381-28.682 64.063-64.063 64.063h-640.626c-35.381 0-64.063-28.682-64.063-64.063v-21.354h768.751zM726.048 109.041c-32.907-19.040-75.382-14.137-103.113 13.594-33.358 33.358-33.358 87.44 0 120.798 27.685 27.685 70.145 32.667 103.112 13.593 12.562 7.266 27.148 11.425 42.704 11.425 47.174 0 85.416-38.242 85.416-85.416s-38.242-85.416-85.416-85.416c-15.556 0-30.14 4.158-42.703 11.424v0zM694.004 141.663c-6.799 12.257-10.669 26.362-10.669 41.37s3.872 29.114 10.67 41.371c-14.221 3.651-29.88-0.183-40.869-11.172-16.678-16.678-16.678-43.72 0-60.399 11.004-11.004 26.663-14.817 40.869-11.171v0zM85.416 503.346c0 58.968 47.803 106.771 106.771 106.771h640.626c58.968 0 106.771-47.803 106.771-106.771v-384.375c0-58.968-47.803-106.771-106.771-106.771h-640.626c-58.968 0-106.771 47.803-106.771 106.771v384.375zM768.751 140.325c23.587 0 42.709 19.122 42.709 42.709s-19.122 42.709-42.709 42.709c-23.587 0-42.709-19.122-42.709-42.709s19.122-42.709 42.709-42.709z" />
<glyph unicode="&#xe9f3;" glyph-name="diamond" data-tags="diamond" d="M729.878 439.287l29.682 178.094 118.772-178.094h-148.454zM719.029 396.58h152.512l-289.819-335.603 137.307 335.603zM305.954 396.58l137.307-335.603-289.862 335.603h152.554zM295.106 439.287h-148.454l118.772 178.094 29.682-178.094zM333.159 470.678l-30.366 182.151h166.99l-136.624-182.151zM555.2 652.83h166.99l-30.366-182.151-136.624 182.151zM363.013 439.287l149.479 199.32 149.479-199.32h-298.959zM672.862 396.58l-160.37-392.063-160.37 392.063h320.74zM935.988 429.764l-170.834 256.25c-0.043 0.085-0.171 0.128-0.213 0.213-1.794 2.606-4.143 4.741-6.962 6.321-0.812 0.469-1.709 0.598-2.519 0.982-1.538 0.598-2.904 1.452-4.569 1.709-0.684 0.128-1.366-0.128-2.093-0.043-0.469 0-0.897 0.341-1.409 0.341h-469.792c-0.513 0-0.94-0.341-1.452-0.341-0.684-0.085-1.324 0.171-2.050 0.043-1.666-0.256-3.032-1.11-4.527-1.709-0.854-0.384-1.751-0.513-2.519-0.982-2.819-1.581-5.21-3.716-6.962-6.321-0.085-0.085-0.171-0.128-0.256-0.213l-170.834-256.25c-5.296-7.987-4.656-18.535 1.623-25.796l405.729-469.792c0.897-1.068 2.135-1.538 3.203-2.391 0.94-0.726 1.751-1.538 2.819-2.093 6.363-3.502 13.881-3.502 20.244 0 1.068 0.556 1.879 1.366 2.819 2.093 1.068 0.854 2.306 1.324 3.246 2.391l405.729 469.792c6.278 7.26 6.919 17.809 1.581 25.796v0z" />
<glyph unicode="&#xe9fb;" glyph-name="package" data-tags="package" d="M854.167 413.817v-422.971c0-11.794-9.56-21.354-21.354-21.354h-640.626c-11.794 0-21.354 9.56-21.354 21.354v422.971l-83.89 209.724c-5.61 14.027 4.72 29.285 19.827 29.285h427.084c8.732 0 16.584-5.316 19.827-13.423l65.59-163.975 65.59 163.975c3.243 8.107 11.095 13.423 19.827 13.423h213.542c15.108 0 25.438-15.258 19.827-29.285l-83.89-209.724zM640.626 396.575v-384.375h170.834v384.375h-170.834zM597.917 396.575h-384.375v-384.375h384.375v384.375zM206.645 439.283h381.085l-68.334 170.834h-381.085l68.334-170.834zM818.356 439.283l68.334 170.834h-167.544l-68.334-170.834h167.544zM555.209 161.679v-85.416c0-11.794-9.56-21.354-21.354-21.354h-128.125c-11.794 0-21.354 9.56-21.354 21.354v85.416c0 11.794 9.56 21.354 21.354 21.354h128.125c11.794 0 21.354-9.56 21.354-21.354zM512.5 140.325h-85.416v-42.709h85.416v42.709z" />
<glyph unicode="&#xe9fc;" glyph-name="piggy-bank" data-tags="piggy-bank" d="M131.799 227.198c-50.553 8.425-89.090 52.369-89.090 105.314v42.709c0 11.794 9.56 21.354 21.354 21.354s21.354-9.56 21.354-21.354v-42.709c0-27.996 17.959-51.798 42.983-60.514-0.183 5.851-0.275 11.787-0.275 17.805 0 150.201 154.226 277.604 405.729 277.604 59.113 0 111.438-5.675 156.998-17.112 19.824 60.077 76.417 102.528 141.96 102.528 11.794 0 21.354-9.56 21.354-21.354v-176.602c14.417-17.476 26.327-36.925 35.715-58.293h71.055c11.794 0 21.354-9.56 21.354-21.354v-170.834c0-11.794-9.56-21.354-21.354-21.354h-65.988c-7.346-40.529-35.627-79.54-83.491-117.287v-160.318c0-11.794-9.56-21.354-21.354-21.354h-128.125c-11.794 0-21.354 9.56-21.354 21.354v64.063h-213.542v-64.063c0-11.794-9.56-21.354-21.354-21.354h-128.125c-11.794 0-21.354 9.56-21.354 21.354v115.316c-71.025 40.283-112.45 109.737-124.452 206.455v0zM727.401 520.446c-2.058-12.803-14.958-20.832-27.354-17.025-46.036 14.14-101.446 21.28-166.193 21.28-229.527 0-363.022-110.278-363.022-234.896 0-120.652 38.892-198.436 116.321-237.151 7.234-3.618 11.805-11.012 11.805-19.1v-106.771h85.416v64.063c0 11.794 9.56 21.354 21.354 21.354h256.25c11.794 0 21.354-9.56 21.354-21.354v-64.063h85.416v149.479c0 6.722 3.164 13.051 8.541 17.084 52.094 39.070 76.875 76.242 76.875 111.041 0 11.794 9.56 21.354 21.354 21.354h64.063v128.125h-64.063c-8.902 0-16.869 5.521-19.995 13.857-9.283 24.754-22.176 46.422-38.713 65.13-3.45 3.903-5.355 8.934-5.355 14.143v160.977c-42.915-8.736-76.948-43.288-84.058-87.527zM427.084 631.471c0-11.794-9.56-21.354-21.354-21.354s-21.354 9.56-21.354 21.354c0 58.968 47.803 106.771 106.771 106.771h1.058c58.972 0 106.777-47.806 106.777-106.777 0-11.794-9.56-21.354-21.354-21.354s-21.354 9.56-21.354 21.354c0 35.385-28.685 64.070-64.070 64.070h-1.058c-35.381 0-64.063-28.682-64.063-64.063zM726.042 311.158c-23.587 0-42.709 19.122-42.709 42.709s19.122 42.709 42.709 42.709c23.587 0 42.709-19.122 42.709-42.709s-19.122-42.709-42.709-42.709z" />
<glyph unicode="&#xe9fe;" glyph-name="price-tag" data-tags="price-tag" d="M128.125 588.762c0 58.968 47.803 106.771 106.771 106.771h256.25c5.664 0 11.095-2.25 15.1-6.254l354.605-354.605c48.368-48.368 48.368-126.788 0-175.156l-196.71-196.71c-48.368-48.368-126.788-48.368-175.156 0l-354.605 354.605c-4.005 4.005-6.254 9.436-6.254 15.1v256.25zM482.301 652.825h-247.405c-35.381 0-64.063-28.682-64.063-64.063v-247.405l348.351-348.351c31.69-31.69 83.068-31.69 114.758 0l196.71 196.71c31.69 31.69 31.69 83.068 0 114.758l-348.351 348.351zM341.667 524.7c-23.587 0-42.709-19.122-42.709-42.709s19.122-42.709 42.709-42.709c23.587 0 42.709 19.122 42.709 42.709s-19.122 42.709-42.709 42.709zM341.667 567.409c47.174 0 85.416-38.242 85.416-85.416s-38.242-85.416-85.416-85.416c-47.174 0-85.416 38.242-85.416 85.416s38.242 85.416 85.416 85.416z" />
<glyph unicode="&#xea06;" glyph-name="shopping-bag" data-tags="shopping-bag" d="M384.375 524.7h-64.063c-35.381 0-64.063-28.682-64.063-64.063v-469.792c0-35.381 28.682-64.063 64.063-64.063h384.375c35.381 0 64.063 28.682 64.063 64.063v469.792c0 35.381-28.682 64.063-64.063 64.063h-64.063v-106.771c0-11.794-9.56-21.354-21.354-21.354s-21.354 9.56-21.354 21.354v106.771h-170.834v-106.771c0-11.794-9.56-21.354-21.354-21.354s-21.354 9.56-21.354 21.354v106.771zM384.375 567.409v42.709c0 70.761 57.364 128.125 128.125 128.125s128.125-57.364 128.125-128.125v-42.709h64.063c58.968 0 106.771-47.803 106.771-106.771v-469.792c0-58.968-47.803-106.771-106.771-106.771h-384.375c-58.968 0-106.771 47.803-106.771 106.771v469.792c0 58.968 47.803 106.771 106.771 106.771h64.063zM597.917 567.409v42.709c0 47.174-38.242 85.416-85.416 85.416s-85.416-38.242-85.416-85.416v-42.709h170.834z" />
<glyph unicode="&#xea07;" glyph-name="shopping-cart" data-tags="shopping-cart" d="M235.253 285.897c-0.045 0.246-0.087 0.493-0.124 0.743l-52.109 312.654c-5.148 30.89-31.875 53.53-63.191 53.53h-13.058c-11.794 0-21.354 9.56-21.354 21.354s9.56 21.354 21.354 21.354h13.058c50.901 0 94.525-35.887 104.614-85.416h693.787c14.187 0 24.43-13.579 20.533-27.221l-85.416-298.959c-2.62-9.167-10.999-15.488-20.533-15.488h-551.355l5.314-31.886c5.148-30.89 31.875-53.53 63.191-53.53h482.85c11.794 0 21.354-9.56 21.354-21.354s-9.56-21.354-21.354-21.354h-482.85c-52.194 0-96.737 37.734-105.318 89.218l-9.392 56.354zM231.631 567.409l42.709-256.25h542.366l73.214 256.25h-658.289zM341.667-73.217c-47.174 0-85.416 38.242-85.416 85.416s38.242 85.416 85.416 85.416c47.174 0 85.416-38.242 85.416-85.416s-38.242-85.416-85.416-85.416zM341.667-30.508c23.587 0 42.709 19.122 42.709 42.709s-19.122 42.709-42.709 42.709c-23.587 0-42.709-19.122-42.709-42.709s19.122-42.709 42.709-42.709zM726.042-73.217c-47.174 0-85.416 38.242-85.416 85.416s38.242 85.416 85.416 85.416c47.174 0 85.416-38.242 85.416-85.416s-38.242-85.416-85.416-85.416zM726.042-30.508c23.587 0 42.709 19.122 42.709 42.709s-19.122 42.709-42.709 42.709c-23.587 0-42.709-19.122-42.709-42.709s19.122-42.709 42.709-42.709z" />
<glyph unicode="&#xea08;" glyph-name="store" data-tags="store" d="M256.25-30.508v234.896c0 35.381 28.682 64.063 64.063 64.063h128.125c35.381 0 64.063-28.682 64.063-64.063v-234.896h277.604c35.381 0 64.063 28.682 64.063 64.063v341.667h42.709v-341.667c0-58.968-47.803-106.771-106.771-106.771h-555.209c-58.968 0-106.771 47.803-106.771 106.771v341.667h42.709v-341.667c0-35.381 28.682-64.063 64.063-64.063h21.354zM298.959-30.508h170.834v234.896c0 11.794-9.56 21.354-21.354 21.354h-128.125c-11.794 0-21.354-9.56-21.354-21.354v-234.896zM640.626 204.387v-85.416c0-11.794 9.56-21.354 21.354-21.354h42.709c11.794 0 21.354 9.56 21.354 21.354v85.416c0 11.794-9.56 21.354-21.354 21.354h-42.709c-11.794 0-21.354-9.56-21.354-21.354zM597.917 204.387c0 35.381 28.682 64.063 64.063 64.063h42.709c35.381 0 64.063-28.682 64.063-64.063v-85.416c0-35.381-28.682-64.063-64.063-64.063h-42.709c-35.381 0-64.063 28.682-64.063 64.063v85.416zM256.25 353.867h-106.771c-35.381 0-64.063 28.682-64.063 64.063v34.484c0 8.15 1.556 16.225 4.581 23.792l82.362 205.905c3.243 8.107 11.095 13.423 19.827 13.423h640.626c8.732 0 16.584-5.316 19.827-13.423l82.362-205.905c3.027-7.567 4.581-15.642 4.581-23.792v-34.484c0-35.381-28.682-64.063-64.063-64.063h-106.771c-16.408 0-31.375 6.168-42.709 16.312-11.334-10.144-26.301-16.312-42.709-16.312h-128.125c-16.408 0-31.375 6.168-42.709 16.312-11.334-10.144-26.301-16.312-42.709-16.312h-128.125c-16.408 0-31.375 6.168-42.709 16.312-11.334-10.144-26.301-16.312-42.709-16.312zM206.645 652.825l-76.993-192.482c-1.009-2.522-1.527-5.214-1.527-7.931v-34.484c0-11.794 9.56-21.354 21.354-21.354h106.771c11.794 0 21.354 9.56 21.354 21.354v42.709c0 11.794 9.56 21.354 21.354 21.354s21.354-9.56 21.354-21.354v-42.709c0-11.794 9.56-21.354 21.354-21.354h128.125c11.794 0 21.354 9.56 21.354 21.354v42.709c0 11.794 9.56 21.354 21.354 21.354s21.354-9.56 21.354-21.354v-42.709c0-11.794 9.56-21.354 21.354-21.354h128.125c11.794 0 21.354 9.56 21.354 21.354v42.709c0 11.794 9.56 21.354 21.354 21.354s21.354-9.56 21.354-21.354v-42.709c0-11.794 9.56-21.354 21.354-21.354h106.771c11.794 0 21.354 9.56 21.354 21.354v34.484c0 2.717-0.519 5.408-1.527 7.931l-76.993 192.482h-611.71z" />
<glyph unicode="&#xea09;" glyph-name="wallet" data-tags="wallet" d="M896.876 460.637c-17.852 13.41-40.018 21.354-64.063 21.354h-23.49c-9.909 48.731-53.001 85.416-104.635 85.416h-384.375c-51.634 0-94.728-36.687-104.635-85.416h-23.49c-35.406 0-64.063 28.657-64.063 64.063v42.709c0 35.406 28.657 64.063 64.063 64.063h640.626c35.406 0 64.063-28.657 64.063-64.063v-128.125zM259.881 481.992c8.798 24.899 32.544 42.709 60.432 42.709h384.375c27.888 0 51.634-17.809 60.432-42.709h-505.24zM896.876 311.158h-149.479c-58.981 0-106.771-47.791-106.771-106.771s47.791-106.771 106.771-106.771h149.479v-64.063c0-35.363-28.657-64.063-64.063-64.063h-640.626c-35.406 0-64.063 28.7-64.063 64.063v427.084c17.852-13.41 40.018-21.354 64.063-21.354h640.626c35.406 0 64.063-28.7 64.063-64.063v-64.063zM896.876 140.325h-149.479c-35.406 0-64.063 28.7-64.063 64.063s28.657 64.063 64.063 64.063h149.479v-128.125zM832.813 695.534h-640.626c-58.981 0-106.771-47.791-106.771-106.771v-555.209c0-58.981 47.791-106.771 106.771-106.771h640.626c58.981 0 106.771 47.791 106.771 106.771v555.209c0 58.981-47.791 106.771-106.771 106.771v0z" />
<glyph unicode="&#xea2c;" glyph-name="at" data-tags="at" d="M512.5 97.617c-117.936 0-213.542 95.606-213.542 213.542s95.606 213.542 213.542 213.542c117.936 0 213.542-95.606 213.542-213.542s-95.606-213.542-213.542-213.542zM512.5 140.325c94.349 0 170.834 76.485 170.834 170.834s-76.485 170.834-170.834 170.834c-94.349 0-170.834-76.485-170.834-170.834s76.485-170.834 170.834-170.834zM732.219 49.499c9.028 7.589 22.498 6.422 30.086-2.605s6.422-22.498-2.605-30.086c-68.746-57.79-155.519-90.024-247.2-90.024-212.284 0-384.375 172.091-384.375 384.375s172.091 384.375 384.375 384.375c212.284 0 384.375-172.091 384.375-384.375v-106.771c0-58.968-47.803-106.771-106.771-106.771s-106.771 47.803-106.771 106.771v256.25c0 11.794 9.56 21.354 21.354 21.354s21.354-9.56 21.354-21.354v-256.25c0-35.381 28.682-64.063 64.063-64.063s64.063 28.682 64.063 64.063v106.771c0 188.697-152.969 341.667-341.667 341.667s-341.667-152.969-341.667-341.667c0-188.697 152.969-341.667 341.667-341.667 81.534 0 158.598 28.627 219.719 80.007z" />
<glyph unicode="&#xea2d;" glyph-name="attach-document" data-tags="attach-document" d="M491.147 396.575c-11.794 0-21.354 9.56-21.354 21.354s9.56 21.354 21.354 21.354h213.542c11.794 0 21.354-9.56 21.354-21.354s-9.56-21.354-21.354-21.354h-213.542zM405.729 268.45c-11.794 0-21.354 9.56-21.354 21.354s9.56 21.354 21.354 21.354h298.959c11.794 0 21.354-9.56 21.354-21.354s-9.56-21.354-21.354-21.354h-298.959zM405.729 140.325c-11.794 0-21.354 9.56-21.354 21.354s9.56 21.354 21.354 21.354h213.542c11.794 0 21.354-9.56 21.354-21.354s-9.56-21.354-21.354-21.354h-213.542zM491.147 610.117c-11.794 0-21.354 9.56-21.354 21.354s9.56 21.354 21.354 21.354h298.959c58.968 0 106.771-47.803 106.771-106.771v-555.209c0-58.968-47.803-106.771-106.771-106.771h-469.792c-58.968 0-106.771 47.803-106.771 106.771v213.542c0 11.794 9.56 21.354 21.354 21.354s21.354-9.56 21.354-21.354v-213.542c0-35.381 28.682-64.063 64.063-64.063h469.792c35.381 0 64.063 28.682 64.063 64.063v555.209c0 35.381-28.682 64.063-64.063 64.063h-298.959zM256.25 460.637c0-11.794-9.56-21.354-21.354-21.354s-21.354 9.56-21.354 21.354v149.479c0 47.174 38.242 85.416 85.416 85.416s85.416-38.242 85.416-85.416v-149.479c0-82.556-66.924-149.479-149.479-149.479s-149.479 66.924-149.479 149.479v213.542c0 11.794 9.56 21.354 21.354 21.354s21.354-9.56 21.354-21.354v-213.542c0-58.968 47.803-106.771 106.771-106.771s106.771 47.803 106.771 106.771v149.479c0 23.587-19.122 42.709-42.709 42.709s-42.709-19.122-42.709-42.709v-149.479z" />
<glyph unicode="&#xea2e;" glyph-name="paperclip" data-tags="paperclip" d="M732.274 347.589c8.326 8.352 21.847 8.372 30.199 0.046s8.372-21.847 0.046-30.199l-253.879-254.654c-67.408-67.614-176.866-67.781-244.491-0.361-67.614 67.614-67.614 176.956-0.154 244.416l267.279 265.823c49.77 49.498 130.207 49.388 179.842-0.246 49.618-49.618 49.629-130.063 0.024-179.694l-271.459-271.601c-32.101-32.118-84.161-32.132-116.282-0.029-32.133 32.133-32.221 84.181-0.212 116.411l194.831 196.165c8.311 8.368 21.831 8.414 30.199 0.103s8.414-21.831 0.103-30.199l-194.831-196.165c-15.428-15.534-15.385-40.621 0.094-56.1 15.444-15.436 40.464-15.43 55.891 0.005l271.459 271.601c32.934 32.951 32.927 86.36-0.016 119.304-32.987 32.987-86.447 33.060-119.526 0.163l-266.945-265.489c-51.033-51.033-51.033-133.332-0.284-184.082 51.062-50.907 133.477-50.781 184.233 0.129l253.879 254.654z" />
<glyph unicode="&#xea2f;" glyph-name="exclamation-mark" data-tags="exclamation-mark" d="M555.209 247.096c0-11.794-9.56-21.354-21.354-21.354s-21.354 9.56-21.354 21.354v170.834c0 11.794 9.56 21.354 21.354 21.354s21.354-9.56 21.354-21.354v-170.834zM512.5 140.325h42.709v-42.709h-42.709v42.709zM514.982 684.171c8.021 15.151 29.724 15.151 37.745 0l384.375-726.042c7.529-14.222-2.781-31.346-18.872-31.346h-768.751c-16.092 0-26.402 17.124-18.872 31.346l384.375 726.042zM184.947-30.508h697.816l-348.908 659.049-348.908-659.049z" />
<glyph unicode="&#xea3a;" glyph-name="book-alt" data-tags="book-alt" d="M170.834 631.471c0 58.968 47.803 106.771 106.771 106.771h555.209c11.794 0 21.354-9.56 21.354-21.354s-9.56-21.354-21.354-21.354h-555.209c-35.381 0-64.063-28.682-64.063-64.063s28.682-64.063 64.063-64.063h469.792c58.968 0 106.771-47.803 106.771-106.771v-469.792c0-58.968-47.803-106.771-106.771-106.771h-384.375c-106.143 0-192.188 86.045-192.188 192.188v555.209zM213.542 76.262c0-82.556 66.924-149.479 149.479-149.479h384.375c35.381 0 64.063 28.682 64.063 64.063v469.792c0 35.381-28.682 64.063-64.063 64.063h-469.792c-24.036 0-46.218 7.943-64.063 21.347v-469.785zM277.604 610.117c-11.794 0-21.354 9.56-21.354 21.354s9.56 21.354 21.354 21.354h555.209c11.794 0 21.354-9.56 21.354-21.354s-9.56-21.354-21.354-21.354h-555.209zM341.667 375.221c0 11.794 9.56 21.354 21.354 21.354h298.959c11.794 0 21.354-9.56 21.354-21.354v-128.125c0-11.794-9.56-21.354-21.354-21.354h-298.959c-11.794 0-21.354 9.56-21.354 21.354v128.125zM384.375 268.45h256.25v85.416h-256.25v-85.416zM363.022 140.325c-11.794 0-21.354 9.56-21.354 21.354s9.56 21.354 21.354 21.354h298.959c11.794 0 21.354-9.56 21.354-21.354s-9.56-21.354-21.354-21.354h-298.959zM363.022 54.908c-11.794 0-21.354 9.56-21.354 21.354s9.56 21.354 21.354 21.354h170.834c11.794 0 21.354-9.56 21.354-21.354s-9.56-21.354-21.354-21.354h-170.834z" />
<glyph unicode="&#xea3b;" glyph-name="book" data-tags="book" d="M341.667 695.534v-597.917h469.792v576.563c0 11.794-9.56 21.354-21.354 21.354h-448.438zM298.959 695.534h-21.354c-35.381 0-64.063-28.682-64.063-64.063v-555.201c17.844 13.404 40.026 21.347 64.063 21.347h21.354v597.917zM177.291-45.809c-3.984 3.879-6.458 9.301-6.458 15.301v661.979c0 58.968 47.803 106.771 106.771 106.771h512.5c35.381 0 64.063-28.682 64.063-64.063v-726.042c0-35.381-28.682-64.063-64.063-64.063h-512.5c-46.090 0-85.359 29.204-100.313 70.116v0zM811.459 54.908h-533.854c-35.381 0-64.063-28.682-64.063-64.063s28.682-64.063 64.063-64.063h512.5c11.794 0 21.354 9.56 21.354 21.354v106.771zM448.438 396.575c-11.794 0-21.354 9.56-21.354 21.354s9.56 21.354 21.354 21.354h256.25c11.794 0 21.354-9.56 21.354-21.354s-9.56-21.354-21.354-21.354h-256.25zM448.438 481.992c-11.794 0-21.354 9.56-21.354 21.354s9.56 21.354 21.354 21.354h170.834c11.794 0 21.354-9.56 21.354-21.354s-9.56-21.354-21.354-21.354h-170.834z" />
<glyph unicode="&#xea3c;" glyph-name="bookmark" data-tags="bookmark" d="M726.042 546.055c0 35.381-28.682 64.063-64.063 64.063h-298.959c-35.381 0-64.063-28.682-64.063-64.063v-519.544l203.295 111.196c6.385 3.492 14.11 3.492 20.495 0l203.295-111.196v519.544zM287.852-28.245c-14.231-7.784-31.602 2.514-31.602 18.735v555.565c0 58.968 47.803 106.771 106.771 106.771h298.959c58.968 0 106.771-47.803 106.771-106.771v-555.565c0-16.22-17.371-26.519-31.602-18.735l-224.648 122.876-224.648-122.876z" />
<glyph unicode="&#xea3e;" glyph-name="calendar-day" data-tags="calendar-day" d="M683.334 652.825h-341.667v-21.354c0-11.794-9.56-21.354-21.354-21.354s-21.354 9.56-21.354 21.354v21.354h-64.063c-35.381 0-64.063-28.682-64.063-64.063v-106.771h683.334v106.771c0 35.381-28.682 64.063-64.063 64.063h-64.063v-21.354c0-11.794-9.56-21.354-21.354-21.354s-21.354 9.56-21.354 21.354v21.354zM726.042 695.534h64.063c58.968 0 106.771-47.803 106.771-106.771v-555.523c0-58.968-47.803-106.771-106.771-106.771h-555.209c-58.968 0-106.771 47.803-106.771 106.771v555.523c0 58.968 47.803 106.771 106.771 106.771h64.063v21.354c0 11.794 9.56 21.354 21.354 21.354s21.354-9.56 21.354-21.354v-21.354h341.667v21.354c0 11.794 9.56 21.354 21.354 21.354s21.354-9.56 21.354-21.354v-21.354zM854.167 439.283h-683.334v-406.044c0-35.381 28.682-64.063 64.063-64.063h555.209c35.381 0 64.063 28.682 64.063 64.063v406.044zM213.542 375.221c0 11.794 9.56 21.354 21.354 21.354h85.416c11.794 0 21.354-9.56 21.354-21.354v-85.416c0-11.794-9.56-21.354-21.354-21.354h-85.416c-11.794 0-21.354 9.56-21.354 21.354v85.416zM256.25 353.867v-42.709h42.709v42.709h-42.709z" />
<glyph unicode="&#xea3f;" glyph-name="calendar-month" data-tags="calendar-month" d="M811.459 375.221v-298.959c0-35.381-28.682-64.063-64.063-64.063h-469.792c-35.381 0-64.063 28.682-64.063 64.063v298.959c0 11.794 9.56 21.354 21.354 21.354h555.209c11.794 0 21.354-9.56 21.354-21.354zM768.751 97.617h-512.5v-21.354c0-11.794 9.56-21.354 21.354-21.354h469.792c11.794 0 21.354 9.56 21.354 21.354v21.354zM768.751 140.325v42.709h-512.5v-42.709h512.5zM256.25 225.742h512.5v42.709h-512.5v-42.709zM768.751 311.158v42.709h-512.5v-42.709h512.5zM683.334 652.825h-341.667v-21.354c0-11.794-9.56-21.354-21.354-21.354s-21.354 9.56-21.354 21.354v21.354h-64.063c-35.381 0-64.063-28.682-64.063-64.063v-106.771h683.334v106.771c0 35.381-28.682 64.063-64.063 64.063h-64.063v-21.354c0-11.794-9.56-21.354-21.354-21.354s-21.354 9.56-21.354 21.354v21.354zM726.042 695.534h64.063c58.968 0 106.771-47.803 106.771-106.771v-555.523c0-58.968-47.803-106.771-106.771-106.771h-555.209c-58.968 0-106.771 47.803-106.771 106.771v555.523c0 58.968 47.803 106.771 106.771 106.771h64.063v21.354c0 11.794 9.56 21.354 21.354 21.354s21.354-9.56 21.354-21.354v-21.354h341.667v21.354c0 11.794 9.56 21.354 21.354 21.354s21.354-9.56 21.354-21.354v-21.354zM854.167 439.283h-683.334v-406.044c0-35.381 28.682-64.063 64.063-64.063h555.209c35.381 0 64.063 28.682 64.063 64.063v406.044z" />
<glyph unicode="&#xea41;" glyph-name="calendar-week" data-tags="calendar-week" d="M683.334 652.825h-341.667v-21.354c0-11.794-9.56-21.354-21.354-21.354s-21.354 9.56-21.354 21.354v21.354h-64.063c-35.381 0-64.063-28.682-64.063-64.063v-106.771h683.334v106.771c0 35.381-28.682 64.063-64.063 64.063h-64.063v-21.354c0-11.794-9.56-21.354-21.354-21.354s-21.354 9.56-21.354 21.354v21.354zM726.042 695.534h64.063c58.968 0 106.771-47.803 106.771-106.771v-555.523c0-58.968-47.803-106.771-106.771-106.771h-555.209c-58.968 0-106.771 47.803-106.771 106.771v555.523c0 58.968 47.803 106.771 106.771 106.771h64.063v21.354c0 11.794 9.56 21.354 21.354 21.354s21.354-9.56 21.354-21.354v-21.354h341.667v21.354c0 11.794 9.56 21.354 21.354 21.354s21.354-9.56 21.354-21.354v-21.354zM854.167 439.283h-683.334v-406.044c0-35.381 28.682-64.063 64.063-64.063h555.209c35.381 0 64.063 28.682 64.063 64.063v406.044zM213.542 375.221c0 11.794 9.56 21.354 21.354 21.354h555.209c11.794 0 21.354-9.56 21.354-21.354v-85.416c0-11.794-9.56-21.354-21.354-21.354h-555.209c-11.794 0-21.354 9.56-21.354 21.354v85.416zM256.25 353.867v-42.709h512.5v42.709h-512.5z" />
<glyph unicode="&#xea45;" glyph-name="chat" data-tags="chat" d="M247.273 181.323c5.656 1.616 11.726 0.828 16.781-2.179 42.515-25.284 91.078-38.82 141.674-38.82 153.317 0 277.604 124.287 277.604 277.604s-124.287 277.604-277.604 277.604c-153.317 0-277.604-124.287-277.604-277.604 0-50.596 13.536-99.16 38.82-141.674 3.006-5.055 3.795-11.126 2.179-16.781l-31.261-109.411 109.411 31.261zM712.321 510.97c133.684-40.493 227.264-164.291 227.264-306.583 0-55.149-13.975-108.298-40.161-155.404l39.339-137.688c4.602-16.109-10.29-31.001-26.399-26.399l-137.688 39.339c-47.106-26.187-100.255-40.161-155.404-40.161-142.155 0-266.024 93.418-306.583 227.268-21.656 6.562-42.544 15.418-62.362 26.435l-137.688-39.339c-16.109-4.602-31.001 10.29-26.399 26.399l39.339 137.688c-26.187 47.106-40.161 100.255-40.161 155.404 0 176.904 143.409 320.313 320.313 320.313 144.545 0 266.728-95.743 306.59-227.271v0zM723.040 461.968c1.98-14.396 3.002-29.097 3.002-44.038 0-176.904-143.409-320.313-320.313-320.313-14.851 0-29.555 1.013-44.036 3.006 41.653-103.48 142.736-173.839 257.579-173.839 50.596 0 99.16 13.536 141.674 38.82 5.055 3.006 11.126 3.795 16.781 2.179l109.411-31.261-31.261 109.411c-1.616 5.656-0.828 11.726 2.179 16.781 25.284 42.515 38.82 91.078 38.82 141.674 0 114.943-70.471 215.977-173.836 257.581v0z" />
<glyph unicode="&#xea48;" glyph-name="checkmark" data-tags="checkmark" d="M448.438 191.879l283.859 283.859c8.339 8.339 21.86 8.339 30.199 0s8.339-21.86 0-30.199l-298.959-298.959c-8.339-8.339-21.86-8.339-30.199 0l-128.125 128.125c-8.339 8.339-8.339 21.86 0 30.199s21.86 8.339 30.199 0l113.025-113.025z" />
<glyph unicode="&#xea4c;" glyph-name="close" data-tags="close" d="M512.5 341.358l177.088 177.088c8.339 8.339 21.86 8.339 30.199 0s8.339-21.86 0-30.199l-177.088-177.088 177.088-177.088c8.339-8.339 8.339-21.86 0-30.199s-21.86-8.339-30.199 0l-177.088 177.088-177.088-177.088c-8.339-8.339-21.86-8.339-30.199 0s-8.339 21.86 0 30.199l177.088 177.088-177.088 177.088c-8.339 8.339-8.339 21.86 0 30.199s21.86 8.339 30.199 0l177.088-177.088z" />
<glyph unicode="&#xea4e;" glyph-name="comment" data-tags="comment" d="M353.973 3.868c4.294 0.716 8.705 0.102 12.64-1.76 45.207-21.38 94.729-32.618 145.887-32.618 188.697 0 341.667 152.969 341.667 341.667s-152.969 341.667-341.667 341.667c-188.697 0-341.667-152.969-341.667-341.667 0-72.899 22.861-142.298 64.684-200.087 4.508-6.229 5.319-14.402 2.123-21.396l-52.038-113.869 168.37 28.061zM152.99-72.927c-16.878-2.813-30.045 14.376-22.932 29.939l63.665 139.312c-42.473 62.894-65.597 137.148-65.597 214.834 0 212.284 172.091 384.375 384.375 384.375s384.375-172.091 384.375-384.375c0-212.284-172.091-384.375-384.375-384.375-55.199 0-108.784 11.657-157.998 33.876l-201.513-33.586z" />
<glyph unicode="&#xea52;" glyph-name="earth-alt" data-tags="earth-alt" d="M458.478 691.767c-186.706-26.262-330.353-186.66-330.353-380.609 0-212.284 172.091-384.375 384.375-384.375s384.375 172.091 384.375 384.375c0 29.358-3.291 57.946-9.524 85.416h-75.892v-21.354c0-11.794-9.56-21.354-21.354-21.354h-64.063v-12.509l36.454-36.454c8.339-8.339 8.339-21.86 0-30.199l-79.162-79.162v-76.572c0-3.315-0.772-6.584-2.254-9.55l-42.709-85.416-4-5.549-42.709-42.709c-8.339-8.339-21.86-8.339-30.199 0l-42.709 42.709c-4.005 4.005-6.254 9.436-6.254 15.1v119.279l-36.454 36.454c-4.005 4.005-6.254 9.436-6.254 15.1v33.863l-34.003 34.003-82.317 41.158-5.549 4-42.709 42.709c-8.339 8.339-8.339 21.86 0 30.199l36.454 36.454v33.863c0 11.794 9.56 21.354 21.354 21.354h76.572l36.454 36.454c8.339 8.339 21.86 8.339 30.199 0l40.258-40.258 77.808-38.904h28.822l30.199 30.199v25.018l-36.454 36.454c-4.005 4.005-6.254 9.436-6.254 15.1v21.354h-42.709v-21.354c0-11.794-9.56-21.354-21.354-21.354h-42.709c-5.664 0-11.095 2.25-15.1 6.254l-36.454 36.454h-33.863c-19.025 0-28.552 23.001-15.1 36.454l36.454 36.454v28.822l-11.314 22.629zM504.386 695.45l5.86-11.72c1.482-2.965 2.254-6.235 2.254-9.55v-42.709c0-5.664-2.25-11.095-6.254-15.1l-7.61-7.61c2.831-1.060 5.432-2.72 7.61-4.898l36.454-36.454h12.509v21.354c0 11.794 9.56 21.354 21.354 21.354h85.416c11.794 0 21.354-9.56 21.354-21.354v-33.863l36.454-36.454c4.005-4.005 6.254-9.436 6.254-15.1v-42.709c0-5.664-2.25-11.095-6.254-15.1l-42.709-42.709c-4.005-4.005-9.436-6.254-15.1-6.254h-42.709c-3.315 0-6.584 0.772-9.55 2.254l-85.416 42.709-5.549 4-27.609 27.609-27.609-27.609c-4.005-4.005-9.436-6.254-15.1-6.254h-64.063v-21.354c0-5.664-2.25-11.095-6.254-15.1l-27.609-27.609 25.159-25.159 82.317-41.158 5.549-4 42.709-42.709c4.005-4.005 6.254-9.436 6.254-15.1v-33.863l36.454-36.454c4.005-4.005 6.254-9.436 6.254-15.1v-119.279l21.354-21.354 25.159 25.159 38.904 77.808v80.375c0 5.664 2.25 11.095 6.254 15.1l70.317 70.317-27.609 27.609c-4.005 4.005-6.254 9.436-6.254 15.1v42.709c0 11.794 9.56 21.354 21.354 21.354h64.063v21.354c0 11.794 9.56 21.354 21.354 21.354h84.899c-52.767 149.291-195.145 256.25-362.504 256.25-2.712 0-5.416-0.028-8.115-0.084v0zM512.5-115.926c-235.871 0-427.084 191.212-427.084 427.084s191.212 427.084 427.084 427.084c235.871 0 427.084-191.212 427.084-427.084s-191.212-427.084-427.084-427.084z" />
<glyph unicode="&#xea53;" glyph-name="earth" data-tags="earth" d="M469.792-70.871v52.872l-79.162 79.162c-4.005 4.005-6.254 9.436-6.254 15.1v119.279l-36.454 36.454c-4.005 4.005-6.254 9.436-6.254 15.1v42.709c0 11.794 9.56 21.354 21.354 21.354h213.542c35.381 0 64.063-28.682 64.063-64.063v-42.709c0-11.794 9.56-21.354 21.354-21.354 35.381 0 64.063-28.682 64.063-64.063 0-11.794 9.56-21.354 21.354-21.354h84.753c40.884 61.078 64.726 134.525 64.726 213.542 0 167.359-106.959 309.737-256.25 362.504v-42.191c0-58.968-47.803-106.771-106.771-106.771h-42.709c-11.794 0-21.354-9.56-21.354-21.354v-42.709c0-35.381-28.682-64.063-64.063-64.063h-64.063v-21.354c0-5.664-2.25-11.095-6.254-15.1l-42.709-42.709c-8.339-8.339-21.86-8.339-30.199 0l-114.897 114.897c-12.639-38.088-19.482-78.821-19.482-121.151 0-197.849 149.481-360.784 341.667-382.029zM512.5-73.217c113.839 0 216.12 49.488 286.502 128.125h-51.605c-35.381 0-64.063 28.682-64.063 64.063 0 11.794-9.56 21.354-21.354 21.354-35.381 0-64.063 28.682-64.063 64.063v42.709c0 11.794-9.56 21.354-21.354 21.354h-192.188v-12.509l36.454-36.454c4.005-4.005 6.254-9.436 6.254-15.1v-119.279l79.162-79.162c4.005-4.005 6.254-9.436 6.254-15.1v-64.063zM495.023-115.574c-1.257-0.23-2.553-0.351-3.877-0.351-2.095 0-4.119 0.301-6.032 0.864-223.11 14.12-399.697 199.548-399.697 426.22 0 235.871 191.212 427.084 427.084 427.084s427.084-191.212 427.084-427.084c0-235.871-191.212-427.084-427.084-427.084-5.854 0-11.68 0.118-17.477 0.351v0zM164.893 475.424l112.711-112.711 21.354 21.354v33.863c0 11.794 9.56 21.354 21.354 21.354h85.416c11.794 0 21.354 9.56 21.354 21.354v42.709c0 35.381 28.682 64.063 64.063 64.063h42.709c35.381 0 64.063 28.682 64.063 64.063v54.538c-27.471 6.233-56.060 9.524-85.416 9.524-153.517 0-286.013-89.998-347.607-220.11v0z" />
<glyph unicode="&#xea59;" glyph-name="flag" data-tags="flag" d="M555.209 610.117h234.896c17.597 0 27.641-20.090 17.084-34.166l-118.516-158.021 118.516-158.021c10.558-14.078 0.514-34.166-17.084-34.166h-213.542c-35.381 0-64.063 28.682-64.063 64.063 0 11.794-9.56 21.354-21.354 21.354h-234.896v-363.022c0-11.794-9.56-21.354-21.354-21.354s-21.354 9.56-21.354 21.354v683.648c0 35.381 28.682 64.063 64.063 64.063h213.542c35.381 0 64.063-28.682 64.063-64.063v-21.668zM555.209 567.409v-64.063c0-11.794-9.56-21.354-21.354-21.354s-21.354 9.56-21.354 21.354v85.332c0 0.028 0 0.056 0 0.085s0 0.056 0 0.085v42.938c0 11.794-9.56 21.354-21.354 21.354h-213.542c-11.794 0-21.354-9.56-21.354-21.354v-277.918h234.896c35.381 0 64.063-28.682 64.063-64.063 0-11.794 9.56-21.354 21.354-21.354h170.834l-102.5 136.666c-5.695 7.592-5.695 18.033 0 25.625l102.5 136.666h-192.188z" />
<glyph unicode="&#xea5a;" glyph-name="grid" data-tags="grid" d="M128.125 588.762c0 58.968 47.803 106.771 106.771 106.771h128.125c58.968 0 106.771-47.803 106.771-106.771v-128.125c0-58.968-47.803-106.771-106.771-106.771h-128.125c-58.968 0-106.771 47.803-106.771 106.771v128.125zM170.834 588.762v-128.125c0-35.381 28.682-64.063 64.063-64.063h128.125c35.381 0 64.063 28.682 64.063 64.063v128.125c0 35.381-28.682 64.063-64.063 64.063h-128.125c-35.381 0-64.063-28.682-64.063-64.063zM555.209 588.762c0 58.968 47.803 106.771 106.771 106.771h128.125c58.968 0 106.771-47.803 106.771-106.771v-128.125c0-58.968-47.803-106.771-106.771-106.771h-128.125c-58.968 0-106.771 47.803-106.771 106.771v128.125zM597.917 588.762v-128.125c0-35.381 28.682-64.063 64.063-64.063h128.125c35.381 0 64.063 28.682 64.063 64.063v128.125c0 35.381-28.682 64.063-64.063 64.063h-128.125c-35.381 0-64.063-28.682-64.063-64.063zM128.125 161.679c0 58.968 47.803 106.771 106.771 106.771h128.125c58.968 0 106.771-47.803 106.771-106.771v-128.125c0-58.968-47.803-106.771-106.771-106.771h-128.125c-58.968 0-106.771 47.803-106.771 106.771v128.125zM170.834 161.679v-128.125c0-35.381 28.682-64.063 64.063-64.063h128.125c35.381 0 64.063 28.682 64.063 64.063v128.125c0 35.381-28.682 64.063-64.063 64.063h-128.125c-35.381 0-64.063-28.682-64.063-64.063zM555.209 161.679c0 58.968 47.803 106.771 106.771 106.771h128.125c58.968 0 106.771-47.803 106.771-106.771v-128.125c0-58.968-47.803-106.771-106.771-106.771h-128.125c-58.968 0-106.771 47.803-106.771 106.771v128.125zM597.917 161.679v-128.125c0-35.381 28.682-64.063 64.063-64.063h128.125c35.381 0 64.063 28.682 64.063 64.063v128.125c0 35.381-28.682 64.063-64.063 64.063h-128.125c-35.381 0-64.063-28.682-64.063-64.063z" />
<glyph unicode="&#xea5b;" glyph-name="hamburger-menu" data-tags="hamburger-menu" d="M149.479 524.7c-11.794 0-21.354 9.56-21.354 21.354s9.56 21.354 21.354 21.354h726.042c11.794 0 21.354-9.56 21.354-21.354s-9.56-21.354-21.354-21.354h-726.042zM149.479 311.158c-11.794 0-21.354 9.56-21.354 21.354s9.56 21.354 21.354 21.354h726.042c11.794 0 21.354-9.56 21.354-21.354s-9.56-21.354-21.354-21.354h-726.042zM149.479 97.617c-11.794 0-21.354 9.56-21.354 21.354s9.56 21.354 21.354 21.354h726.042c11.794 0 21.354-9.56 21.354-21.354s-9.56-21.354-21.354-21.354h-726.042z" />
<glyph unicode="&#xea5c;" glyph-name="heart" data-tags="heart" d="M854.167 396.575c0 134.952-73.351 213.542-192.188 213.542-63.36 0-105.659-24.171-130.379-73.613-7.87-15.739-30.33-15.739-38.199 0-24.721 49.441-67.019 73.613-130.379 73.613-118.837 0-192.188-78.59-192.188-213.542 0-102.463 113.12-230.582 341.667-380.25 228.547 149.668 341.667 277.787 341.667 380.25zM661.979 652.825c143.108 0 234.896-98.345 234.896-256.25 0-123.596-125.066-263.376-372.775-423.658-7.059-4.567-16.142-4.567-23.202 0-247.708 160.282-372.775 300.062-372.775 423.658 0 157.905 91.789 256.25 234.896 256.25 65.246 0 115.726-22.354 149.479-66.443 33.753 44.089 84.233 66.443 149.479 66.443z" />
<glyph unicode="&#xea5d;" glyph-name="home" data-tags="home" d="M854.167 365.143v-331.59c0-58.968-47.803-106.771-106.771-106.771h-128.125c-11.794 0-21.354 9.56-21.354 21.354v256.25c0 11.794-9.56 21.354-21.354 21.354h-128.125c-11.794 0-21.354-9.56-21.354-21.354v-256.25c0-11.794-9.56-21.354-21.354-21.354h-128.125c-58.968 0-106.771 47.803-106.771 106.771v331.59l-7.78-6.406c-9.104-7.497-22.562-6.195-30.059 2.909s-6.195 22.562 2.909 30.059l363.022 298.959c7.885 6.493 19.265 6.493 27.151 0l363.022-298.959c9.104-7.497 10.406-20.955 2.909-30.059s-20.955-10.406-30.059-2.909l-7.78 6.406zM811.746 400.079l-299.245 246.437-299.245-246.437c0.188-1.14 0.286-2.31 0.286-3.504v-363.022c0-35.381 28.682-64.063 64.063-64.063h106.771v234.896c0 35.381 28.682 64.063 64.063 64.063h128.125c35.381 0 64.063-28.682 64.063-64.063v-234.896h106.771c35.381 0 64.063 28.682 64.063 64.063v363.022c0 1.193 0.098 2.364 0.286 3.504v0z" />
<glyph unicode="&#xea60;" glyph-name="lifebelt" data-tags="lifebelt" d="M939.032 268.45h-128.382c-10.368-136.291-119.15-245.073-255.441-255.441v-128.382c207.080 10.737 373.085 176.743 383.823 383.823v0zM939.032 311.158c-10.737 207.080-176.743 373.085-383.823 383.823v-128.382c136.291-10.368 245.073-119.15 255.441-255.441h128.382zM128.678 268.45c10.737-207.080 176.743-373.085 383.823-383.823v128.382c-136.291 10.368-245.073 119.15-255.441 255.441h-128.382zM128.678 311.158h128.382c10.368 136.291 119.15 245.073 255.441 255.441v128.382c-207.080-10.737-373.085-176.743-383.823-383.823v0zM533.854-158.633c-247.666 0-448.438 200.772-448.438 448.438s200.772 448.438 448.438 448.438c247.666 0 448.438-200.772 448.438-448.438s-200.772-448.438-448.438-448.438zM533.854 54.908c129.73 0 234.896 105.167 234.896 234.896s-105.167 234.896-234.896 234.896c-129.73 0-234.896-105.167-234.896-234.896s105.167-234.896 234.896-234.896z" />
<glyph unicode="&#xea61;" glyph-name="link" data-tags="link" d="M518.946 317.687c-8.317 8.362-8.28 21.882 0.082 30.199s21.882 8.28 30.199-0.082c55.393-55.694 55.319-145.696-0.164-201.301l-92.582-92.783c-55.229-55.348-144.782-55.723-200.473-0.84-55.641 54.851-56.282 144.4-1.445 200.027l93.252 94.595c8.279 8.399 21.8 8.495 30.198 0.216s8.495-21.8 0.216-30.198l-93.252-94.595c-38.278-38.83-37.831-101.338 0.999-139.616 38.974-38.41 101.631-38.147 140.272 0.578l92.582 92.783c38.868 38.952 38.92 102.001 0.115 141.017zM499.169 304.626c8.317-8.362 8.28-21.882-0.082-30.199s-21.882-8.28-30.199 0.082c-55.403 55.705-55.389 145.705 0.032 201.394l89.202 89.632c57.534 57.81 150.755 58.936 209.668 2.53 1.947-1.864 3.84-3.785 5.677-5.758 52.751-56.684 49.56-145.399-7.124-198.15l-96.701-89.989c-8.633-8.034-22.146-7.548-30.179 1.085s-7.548 22.146 1.085 30.179l96.701 89.989c39.417 36.682 41.636 98.372 4.954 137.79-1.277 1.372-2.594 2.708-3.948 4.004-42.108 40.315-108.738 39.512-149.86-1.809l-89.202-89.632c-38.843-39.029-38.853-102.108-0.022-141.149z" />
<glyph unicode="&#xea62;" glyph-name="lock-alt" data-tags="lock-alt" d="M341.667 428.406v139.003c0 94.349 76.485 170.834 170.834 170.834s170.834-76.485 170.834-170.834v-139.003c77.451-54.024 128.125-143.78 128.125-245.373 0-165.11-133.849-298.959-298.959-298.959s-298.959 133.849-298.959 298.959c0 101.592 50.674 191.349 128.125 245.373v0zM640.626 453.222v114.187c0 70.761-57.364 128.125-128.125 128.125s-128.125-57.364-128.125-128.125v-114.187c38.833 18.447 82.273 28.77 128.125 28.77s89.292-10.322 128.125-28.77zM512.5-73.217c141.523 0 256.25 114.727 256.25 256.25s-114.727 256.25-256.25 256.25c-141.523 0-256.25-114.727-256.25-256.25s114.727-256.25 256.25-256.25zM469.792 225.742v-16.313c0-28.086 6.539-55.786 19.1-80.908l11.805-23.609c2.235-4.471 6.806-7.295 11.805-7.295s9.568 2.825 11.805 7.295l11.805 23.609c12.56 25.122 19.1 52.822 19.1 80.908v16.313c0 23.587-19.122 42.709-42.709 42.709s-42.709-19.122-42.709-42.709zM427.084 225.742c0 47.174 38.242 85.416 85.416 85.416s85.416-38.242 85.416-85.416v-16.313c0-34.717-8.083-68.956-23.609-100.008l-11.805-23.609c-9.47-18.94-28.828-30.904-50.004-30.904s-40.534 11.964-50.004 30.904l-11.805 23.609c-15.526 31.051-23.609 65.291-23.609 100.008v16.313z" />
<glyph unicode="&#xea63;" glyph-name="lock" data-tags="lock" d="M709.627 396.388c-1.586-0.375-3.239-0.575-4.939-0.575-1.964 0-3.867 0.265-5.673 0.762h-378.703c-35.381 0-64.063-28.682-64.063-64.063v-298.959c0-35.381 28.682-64.063 64.063-64.063h384.375c35.381 0 64.063 28.682 64.063 64.063v298.959c0 33.719-26.050 61.353-59.124 63.875v0zM341.667 439.283h341.667v42.709c0 94.349-76.485 170.834-170.834 170.834s-170.834-76.485-170.834-170.834v-42.709zM726.042 437.147c48.736-9.893 85.416-52.981 85.416-104.635v-298.959c0-58.968-47.803-106.771-106.771-106.771h-384.375c-58.968 0-106.771 47.803-106.771 106.771v298.959c0 51.654 36.682 94.743 85.416 104.635v44.844c0 117.936 95.606 213.542 213.542 213.542s213.542-95.606 213.542-213.542v-44.844zM469.792 225.742v-16.313c0-28.086 6.539-55.786 19.1-80.908l11.805-23.609c2.235-4.471 6.806-7.295 11.805-7.295s9.568 2.825 11.805 7.295l11.805 23.609c12.56 25.122 19.1 52.822 19.1 80.908v16.313c0 23.587-19.122 42.709-42.709 42.709s-42.709-19.122-42.709-42.709zM427.084 225.742c0 47.174 38.242 85.416 85.416 85.416s85.416-38.242 85.416-85.416v-16.313c0-34.717-8.083-68.956-23.609-100.008l-11.805-23.609c-9.47-18.94-28.828-30.904-50.004-30.904s-40.534 11.964-50.004 30.904l-11.805 23.609c-15.526 31.051-23.609 65.291-23.609 100.008v16.313z" />
<glyph unicode="&#xea64;" glyph-name="mail" data-tags="mail" d="M164.288 60.876c8.433-4.086 17.898-6.378 27.899-6.378h640.626c10.001 0 19.466 2.291 27.899 6.378l-252.347 237.504-82.289-67.767c-7.885-6.493-19.265-6.493-27.151 0l-82.289 67.767-252.348-237.504zM134.236 91.218c0.198 0.201 0.4 0.399 0.608 0.595l248.558 233.936-247.498 203.821c-0.54 0.444-1.052 0.91-1.537 1.394-4.002-8.363-6.243-17.729-6.243-27.618v-384.786c0-9.781 2.192-19.050 6.111-27.343v0zM890.765 91.218c3.92 8.292 6.111 17.561 6.111 27.343v384.786c0 9.89-2.241 19.256-6.243 27.618-0.484-0.484-0.997-0.95-1.537-1.394l-247.498-203.821 248.558-233.936c0.207-0.195 0.409-0.393 0.608-0.595v0zM860.336 561.212c-8.338 3.973-17.67 6.197-27.523 6.197h-640.626c-9.852 0-19.184-2.224-27.523-6.197l347.836-286.453 347.836 286.453zM192.188 610.117h640.626c58.968 0 106.771-47.803 106.771-106.771v-384.786c0-58.968-47.803-106.771-106.771-106.771h-640.626c-58.968 0-106.771 47.803-106.771 106.771v384.786c0 58.968 47.803 106.771 106.771 106.771z" />
<glyph unicode="&#xea65;" glyph-name="map-marker" data-tags="map-marker" d="M512.5 225.742c-94.349 0-170.834 76.485-170.834 170.834s76.485 170.834 170.834 170.834c94.349 0 170.834-76.485 170.834-170.834s-76.485-170.834-170.834-170.834zM512.5 268.45c70.761 0 128.125 57.364 128.125 128.125s-57.364 128.125-128.125 128.125c-70.761 0-128.125-57.364-128.125-128.125s57.364-128.125 128.125-128.125zM526.985-67.553c-8.18-7.55-20.788-7.55-28.968 0-189.029 174.487-284.475 328.67-284.475 464.129 0 165.11 133.849 298.959 298.959 298.959s298.959-133.849 298.959-298.959c0-135.459-95.446-289.641-284.475-464.129zM768.751 396.575c0 141.523-114.727 256.25-256.25 256.25s-256.25-114.727-256.25-256.25c0-117.527 84.845-257.76 256.25-419.241 171.405 161.482 256.25 301.715 256.25 419.241z" />
<glyph unicode="&#xea68;" glyph-name="minus" data-tags="minus" d="M277.604 268.45c-11.794 0-21.354 9.56-21.354 21.354s9.56 21.354 21.354 21.354h469.792c11.794 0 21.354-9.56 21.354-21.354s-9.56-21.354-21.354-21.354h-469.792z" />
<glyph unicode="&#xea69;" glyph-name="more-h" data-tags="more-h" d="M491.147 610.117c-11.794 0-21.354-9.56-21.354-21.354v-42.709c0-11.794 9.56-21.354 21.354-21.354h42.709c11.794 0 21.354 9.56 21.354 21.354v42.709c0 11.794-9.56 21.354-21.354 21.354h-42.709zM491.147 652.825h42.709c35.381 0 64.063-28.682 64.063-64.063v-42.709c0-35.381-28.682-64.063-64.063-64.063h-42.709c-35.381 0-64.063 28.682-64.063 64.063v42.709c0 35.381 28.682 64.063 64.063 64.063zM491.147 353.867c-11.794 0-21.354-9.56-21.354-21.354v-42.709c0-11.794 9.56-21.354 21.354-21.354h42.709c11.794 0 21.354 9.56 21.354 21.354v42.709c0 11.794-9.56 21.354-21.354 21.354h-42.709zM491.147 396.575h42.709c35.381 0 64.063-28.682 64.063-64.063v-42.709c0-35.381-28.682-64.063-64.063-64.063h-42.709c-35.381 0-64.063 28.682-64.063 64.063v42.709c0 35.381 28.682 64.063 64.063 64.063zM491.147 97.617c-11.794 0-21.354-9.56-21.354-21.354v-42.709c0-11.794 9.56-21.354 21.354-21.354h42.709c11.794 0 21.354 9.56 21.354 21.354v42.709c0 11.794-9.56 21.354-21.354 21.354h-42.709zM491.147 140.325h42.709c35.381 0 64.063-28.682 64.063-64.063v-42.709c0-35.381-28.682-64.063-64.063-64.063h-42.709c-35.381 0-64.063 28.682-64.063 64.063v42.709c0 35.381 28.682 64.063 64.063 64.063z" />
<glyph unicode="&#xea6a;" glyph-name="more-v" data-tags="more-v" d="M811.459 332.512c0 11.794-9.56 21.354-21.354 21.354h-42.709c-11.794 0-21.354-9.56-21.354-21.354v-42.709c0-11.794 9.56-21.354 21.354-21.354h42.709c11.794 0 21.354 9.56 21.354 21.354v42.709zM854.167 332.512v-42.709c0-35.381-28.682-64.063-64.063-64.063h-42.709c-35.381 0-64.063 28.682-64.063 64.063v42.709c0 35.381 28.682 64.063 64.063 64.063h42.709c35.381 0 64.063-28.682 64.063-64.063zM555.209 332.512c0 11.794-9.56 21.354-21.354 21.354h-42.709c-11.794 0-21.354-9.56-21.354-21.354v-42.709c0-11.794 9.56-21.354 21.354-21.354h42.709c11.794 0 21.354 9.56 21.354 21.354v42.709zM597.917 332.512v-42.709c0-35.381-28.682-64.063-64.063-64.063h-42.709c-35.381 0-64.063 28.682-64.063 64.063v42.709c0 35.381 28.682 64.063 64.063 64.063h42.709c35.381 0 64.063-28.682 64.063-64.063zM298.959 332.512c0 11.794-9.56 21.354-21.354 21.354h-42.709c-11.794 0-21.354-9.56-21.354-21.354v-42.709c0-11.794 9.56-21.354 21.354-21.354h42.709c11.794 0 21.354 9.56 21.354 21.354v42.709zM341.667 332.512v-42.709c0-35.381-28.682-64.063-64.063-64.063h-42.709c-35.381 0-64.063 28.682-64.063 64.063v42.709c0 35.381 28.682 64.063 64.063 64.063h42.709c35.381 0 64.063-28.682 64.063-64.063z" />
<glyph unicode="&#xea6c;" glyph-name="password" data-tags="password" d="M723.907 12.199c-9.893-48.736-52.981-85.416-104.635-85.416h-384.375c-58.968 0-106.771 47.803-106.771 106.771v298.959c0 51.654 36.682 94.743 85.416 104.635v44.844c0 117.936 95.606 213.542 213.542 213.542s213.542-95.606 213.542-213.542v-44.844c48.736-9.893 85.416-52.981 85.416-104.635v-64.063h64.063c58.968 0 106.771-47.803 106.771-106.771v-42.709c0-58.968-47.803-106.771-106.771-106.771h-66.199zM679.689 12.199h-188.542c-58.968 0-106.771 47.803-106.771 106.771v42.709c0 58.968 47.803 106.771 106.771 106.771h192.188v64.063c0 33.719-26.050 61.353-59.124 63.875-1.586-0.375-3.239-0.575-4.939-0.575-1.964 0-3.867 0.265-5.673 0.762h-378.703c-35.381 0-64.063-28.682-64.063-64.063v-298.959c0-35.381 28.682-64.063 64.063-64.063h384.375c27.893 0 51.622 17.826 60.417 42.709v0zM256.25 439.283h341.667v42.709c0 94.349-76.485 170.834-170.834 170.834s-170.834-76.485-170.834-170.834v-42.709zM854.167 118.971v42.709c0 35.381-28.682 64.063-64.063 64.063h-298.959c-35.381 0-64.063-28.682-64.063-64.063v-42.709c0-35.381 28.682-64.063 64.063-64.063h298.959c35.381 0 64.063 28.682 64.063 64.063zM491.147 183.033h42.709c11.794 0 21.354-9.56 21.354-21.354v-42.709c0-11.794-9.56-21.354-21.354-21.354h-42.709c-11.794 0-21.354 9.56-21.354 21.354v42.709c0 11.794 9.56 21.354 21.354 21.354zM619.272 183.033h42.709c11.794 0 21.354-9.56 21.354-21.354v-42.709c0-11.794-9.56-21.354-21.354-21.354h-42.709c-11.794 0-21.354 9.56-21.354 21.354v42.709c0 11.794 9.56 21.354 21.354 21.354zM747.397 183.033h42.709c11.794 0 21.354-9.56 21.354-21.354v-42.709c0-11.794-9.56-21.354-21.354-21.354h-42.709c-11.794 0-21.354 9.56-21.354 21.354v42.709c0 11.794 9.56 21.354 21.354 21.354z" />
<glyph unicode="&#xea72;" glyph-name="search" data-tags="search" d="M726.017 127.84l164.604-164.604c8.339-8.339 8.339-21.86 0-30.199s-21.86-8.339-30.199 0l-164.604 164.604c-60.234-53.175-139.362-85.441-226.026-85.441-188.697 0-341.667 152.969-341.667 341.667s152.969 341.667 341.667 341.667c188.697 0 341.667-152.969 341.667-341.667 0-86.665-32.267-165.792-85.441-226.026zM469.792 54.908c165.11 0 298.959 133.849 298.959 298.959s-133.849 298.959-298.959 298.959c-165.11 0-298.959-133.849-298.959-298.959s133.849-298.959 298.959-298.959z" />
<glyph unicode="&#xea73;" glyph-name="send" data-tags="send" d="M656.812 6.208l-139.699 279.356 314.291 314.248-174.591-593.604zM207.563 455.457l593.647 174.549-314.291-314.248-279.356 139.699zM143.457 481.082c-18.621-5.466-20.884-30.878-3.544-39.591l335.346-167.631 167.631-335.303c8.669-17.34 34.124-15.076 39.591 3.544l213.542 726.042c4.741 16.187-10.293 31.263-26.522 26.479l-726.042-213.542z" />
<glyph unicode="&#xea75;" glyph-name="shortcut" data-tags="shortcut" d="M823.968 652.825h-119.279c-11.794 0-21.354 9.56-21.354 21.354s9.56 21.354 21.354 21.354h170.834c11.794 0 21.354-9.56 21.354-21.354v-170.834c0-11.794-9.56-21.354-21.354-21.354s-21.354 9.56-21.354 21.354v119.279l-219.797-219.797c-8.339-8.339-21.86-8.339-30.199 0s-8.339 21.86 0 30.199l219.797 219.797zM854.167 332.512c0 11.794 9.56 21.354 21.354 21.354s21.354-9.56 21.354-21.354v-298.959c0-58.968-47.803-106.771-106.771-106.771h-555.209c-58.968 0-106.771 47.803-106.771 106.771v555.209c0 58.968 47.803 106.771 106.771 106.771h298.959c11.794 0 21.354-9.56 21.354-21.354s-9.56-21.354-21.354-21.354h-298.959c-35.381 0-64.063-28.682-64.063-64.063v-555.209c0-35.381 28.682-64.063 64.063-64.063h555.209c35.381 0 64.063 28.682 64.063 64.063v298.959z" />
<glyph unicode="&#xea78;" glyph-name="thumbs-down" data-tags="thumbs-down" d="M811.459 289.805v298.959c0 11.794-9.56 21.354-21.354 21.354h-85.416c-11.794 0-21.354-9.56-21.354-21.354v-298.959c0-11.794 9.56-21.354 21.354-21.354h85.416c11.794 0 21.354 9.56 21.354 21.354zM661.979 242.054l-37.667-75.335c-17.358-34.717-26.395-72.997-26.395-111.812v-10.677c0-41.277-33.462-74.74-74.74-74.74s-75.838 31.278-79.946 72.35l-14.119 141.192h-142.54c-58.968 0-106.771 47.803-106.771 106.771 0 3.548 0.177 7.094 0.53 10.624l25.625 256.25c5.458 54.581 51.387 96.147 106.241 96.147h264.366c28.724 0 54.799-11.342 73.989-29.793 11.36 17.907 31.36 29.793 54.136 29.793h85.416c35.381 0 64.063-28.682 64.063-64.063v-298.959c0-35.381-28.682-64.063-64.063-64.063h-85.416c-16.408 0-31.375 6.168-42.709 16.313v0zM640.626 294.845v251.209c0 35.381-28.682 64.063-64.063 64.063h-264.366c-32.912 0-60.47-24.939-63.744-57.688l-25.625-256.25c-0.212-2.118-0.318-4.246-0.318-6.374 0-35.381 28.682-64.063 64.063-64.063h161.866c10.971 0 20.157-8.313 21.248-19.23l16.042-160.422c1.924-19.24 18.114-33.891 37.45-33.891 17.69 0 32.031 14.341 32.031 32.031v10.677c0 45.444 10.58 90.265 30.904 130.912l54.512 109.025z" />
<glyph unicode="&#xea79;" glyph-name="thumbs-up" data-tags="thumbs-up" d="M213.542 332.512v-298.959c0-11.794 9.56-21.354 21.354-21.354h85.416c11.794 0 21.354 9.56 21.354 21.354v298.959c0 11.794-9.56 21.354-21.354 21.354h-85.416c-11.794 0-21.354-9.56-21.354-21.354zM363.022 380.263l37.667 75.335c17.358 34.717 26.395 72.997 26.395 111.812v10.677c0 41.277 33.462 74.74 74.74 74.74s75.838-31.278 79.946-72.35l14.119-141.192h142.54c58.968 0 106.771-47.803 106.771-106.771 0-3.548-0.177-7.094-0.53-10.624l-25.625-256.25c-5.458-54.581-51.387-96.147-106.241-96.147h-264.366c-28.724 0-54.799 11.342-73.989 29.793-11.36-17.907-31.36-29.793-54.136-29.793h-85.416c-35.381 0-64.063 28.682-64.063 64.063v298.959c0 35.381 28.682 64.063 64.063 64.063h85.416c16.408 0 31.375-6.168 42.709-16.313zM384.375 327.471v-251.209c0-35.381 28.682-64.063 64.063-64.063h264.366c32.912 0 60.47 24.939 63.744 57.688l25.625 256.25c0.212 2.118 0.318 4.246 0.318 6.374 0 35.381-28.682 64.063-64.063 64.063h-161.866c-10.971 0-20.157 8.313-21.248 19.23l-16.042 160.422c-1.924 19.24-18.114 33.891-37.45 33.891-17.69 0-32.031-14.341-32.031-32.031v-10.677c0-45.444-10.58-90.265-30.904-130.912l-54.512-109.025z" />
<glyph unicode="&#xea7a;" glyph-name="trash" data-tags="trash" d="M811.459 567.409v-533.854c0-58.968-47.803-106.771-106.771-106.771h-384.375c-58.968 0-106.771 47.803-106.771 106.771v533.854h-21.354c-11.794 0-21.354 9.56-21.354 21.354s9.56 21.354 21.354 21.354h192.188v21.354c0 35.381 28.682 64.063 64.063 64.063h128.125c35.381 0 64.063-28.682 64.063-64.063v-21.354h192.188c11.794 0 21.354-9.56 21.354-21.354s-9.56-21.354-21.354-21.354h-21.354zM256.25 567.409v-533.854c0-35.381 28.682-64.063 64.063-64.063h384.375c35.381 0 64.063 28.682 64.063 64.063v533.854h-512.5zM597.917 610.117v21.354c0 11.794-9.56 21.354-21.354 21.354h-128.125c-11.794 0-21.354-9.56-21.354-21.354v-21.354h170.834zM597.917 417.93c0 11.794 9.56 21.354 21.354 21.354s21.354-9.56 21.354-21.354v-298.959c0-11.794-9.56-21.354-21.354-21.354s-21.354 9.56-21.354 21.354v298.959zM384.375 417.93c0 11.794 9.56 21.354 21.354 21.354s21.354-9.56 21.354-21.354v-298.959c0-11.794-9.56-21.354-21.354-21.354s-21.354 9.56-21.354 21.354v298.959z" />
<glyph unicode="&#xea7b;" glyph-name="unlink" data-tags="unlink" d="M506.202 446.027c-8.363-8.315-21.883-8.277-30.199 0.086s-8.277 21.883 0.086 30.199l92.87 92.339c55.588 55.271 145.395 55.216 200.915-0.124 55.274-55.094 55.419-144.564 0.325-199.838-0.149-0.149-31.698-31.52-94.646-94.11-8.363-8.315-21.883-8.277-30.199 0.086s-8.277 21.883 0.086 30.199l94.199 93.662c38.755 38.88 38.654 101.31 0.085 139.751-38.867 38.741-101.737 38.78-140.652 0.087l-92.87-92.339zM518.764 176.787c8.344 8.334 21.865 8.326 30.199-0.018s8.326-21.865-0.018-30.199l-92.848-92.739c-55.551-55.486-145.556-55.459-201.074 0.059-55.512 55.577-55.459 145.538 0.059 200.991l92.848 92.739c8.344 8.334 21.865 8.326 30.199-0.018s8.326-21.865-0.018-30.199l-92.848-92.739c-38.83-38.785-38.867-101.703-0.082-140.534 38.888-38.888 101.865-38.906 140.734-0.083l92.848 92.739zM427.084 546.055c0-11.794-9.56-21.354-21.354-21.354s-21.354 9.56-21.354 21.354v85.416c0 11.794 9.56 21.354 21.354 21.354s21.354-9.56 21.354-21.354v-85.416zM640.626-9.154c0-11.794-9.56-21.354-21.354-21.354s-21.354 9.56-21.354 21.354v85.416c0 11.794 9.56 21.354 21.354 21.354s21.354-9.56 21.354-21.354v-85.416zM335.413 518.446c8.339-8.339 8.339-21.86 0-30.199s-21.86-8.339-30.199 0l-85.416 85.416c-8.339 8.339-8.339 21.86 0 30.199s21.86 8.339 30.199 0l85.416-85.416zM805.204 48.654c8.339-8.339 8.339-21.86 0-30.199s-21.86-8.339-30.199 0l-85.416 85.416c-8.339 8.339-8.339 21.86 0 30.199s21.86 8.339 30.199 0l85.416-85.416zM277.604 439.283c11.794 0 21.354-9.56 21.354-21.354s-9.56-21.354-21.354-21.354h-85.416c-11.794 0-21.354 9.56-21.354 21.354s9.56 21.354 21.354 21.354h85.416zM832.813 225.742c11.794 0 21.354-9.56 21.354-21.354s-9.56-21.354-21.354-21.354h-85.416c-11.794 0-21.354 9.56-21.354 21.354s9.56 21.354 21.354 21.354h85.416z" />
<glyph unicode="&#xea7d;" glyph-name="user-circle" data-tags="user-circle" d="M791.587 118.471l-147.643 67.095c49.969 39.078 82.085 99.938 82.085 168.313 0 117.918-95.581 213.542-213.542 213.542-117.918 0-213.542-95.624-213.542-213.542 0-68.376 32.116-129.235 82.128-168.313l-147.643-67.095c-14.051-6.406-26.394-15.674-36.302-27.077-43.519 62.312-69.016 138.076-69.016 219.778 0 212.26 172.115 384.375 384.375 384.375 212.303 0 384.375-172.115 384.375-384.375 0-81.701-25.497-157.466-68.974-219.778-9.909 11.403-22.251 20.671-36.302 27.077zM341.655 353.879c0 94.343 76.491 170.834 170.834 170.834s170.834-76.491 170.834-170.834c0-94.343-76.491-170.834-170.834-170.834s-170.834 76.491-170.834 170.834zM512.487-73.204c-114.757 0-217.728 50.268-288.196 130.004 6.577 9.866 15.802 17.809 26.821 22.763l174.335 79.266c26.565-11.873 56.034-18.493 87.040-18.493s60.475 6.619 87.082 18.493l174.335-79.266c10.976-4.954 20.201-12.898 26.778-22.763-70.426-79.737-173.438-130.004-288.196-130.004zM512.487 738.254c-235.878 0-427.084-191.206-427.084-427.084s191.206-427.084 427.084-427.084c235.878 0 427.084 191.206 427.084 427.084s-191.206 427.084-427.084 427.084z" />
<glyph unicode="&#xea89;" glyph-name="desktop-1" data-tags="desktop-1" d="M854.167 481.992v106.771c0 35.381-28.682 64.063-64.063 64.063h-555.209c-35.381 0-64.063-28.682-64.063-64.063v-106.771h683.334zM854.167 439.283h-683.334v-405.729c0-35.381 28.682-64.063 64.063-64.063h555.209c35.381 0 64.063 28.682 64.063 64.063v405.729zM128.125 588.762c0 58.968 47.803 106.771 106.771 106.771h555.209c58.968 0 106.771-47.803 106.771-106.771v-555.209c0-58.968-47.803-106.771-106.771-106.771h-555.209c-58.968 0-106.771 47.803-106.771 106.771v555.209zM597.917 289.805c0 35.381 28.682 64.063 64.063 64.063h42.709c35.381 0 64.063-28.682 64.063-64.063v-170.834c0-35.381-28.682-64.063-64.063-64.063h-42.709c-35.381 0-64.063 28.682-64.063 64.063v170.834zM640.626 289.805v-170.834c0-11.794 9.56-21.354 21.354-21.354h42.709c11.794 0 21.354 9.56 21.354 21.354v170.834c0 11.794-9.56 21.354-21.354 21.354h-42.709c-11.794 0-21.354-9.56-21.354-21.354zM277.604 311.158c-11.794 0-21.354 9.56-21.354 21.354s9.56 21.354 21.354 21.354h213.542c11.794 0 21.354-9.56 21.354-21.354s-9.56-21.354-21.354-21.354h-213.542zM277.604 183.033c-11.794 0-21.354 9.56-21.354 21.354s9.56 21.354 21.354 21.354h213.542c11.794 0 21.354-9.56 21.354-21.354s-9.56-21.354-21.354-21.354h-213.542zM277.604 54.908c-11.794 0-21.354 9.56-21.354 21.354s9.56 21.354 21.354 21.354h128.125c11.794 0 21.354-9.56 21.354-21.354s-9.56-21.354-21.354-21.354h-128.125z" />
<glyph unicode="&#xea8a;" glyph-name="desktop-2" data-tags="desktop-2" d="M854.167 567.409v21.354c0 35.381-28.682 64.063-64.063 64.063h-555.209c-35.381 0-64.063-28.682-64.063-64.063v-21.354h683.334zM854.167 524.7h-683.334v-491.147c0-35.381 28.682-64.063 64.063-64.063h555.209c35.381 0 64.063 28.682 64.063 64.063v491.147zM128.125 588.762c0 58.968 47.803 106.771 106.771 106.771h555.209c58.968 0 106.771-47.803 106.771-106.771v-555.209c0-58.968-47.803-106.771-106.771-106.771h-555.209c-58.968 0-106.771 47.803-106.771 106.771v555.209zM320.313 439.283h85.416c35.381 0 64.063-28.682 64.063-64.063v-42.709c0-35.381-28.682-64.063-64.063-64.063h-85.416c-35.381 0-64.063 28.682-64.063 64.063v42.709c0 35.381 28.682 64.063 64.063 64.063zM320.313 396.575c-11.794 0-21.354-9.56-21.354-21.354v-42.709c0-11.794 9.56-21.354 21.354-21.354h85.416c11.794 0 21.354 9.56 21.354 21.354v42.709c0 11.794-9.56 21.354-21.354 21.354h-85.416zM277.604 140.325c-11.794 0-21.354 9.56-21.354 21.354s9.56 21.354 21.354 21.354h170.834c11.794 0 21.354-9.56 21.354-21.354s-9.56-21.354-21.354-21.354h-170.834zM277.604 54.908c-11.794 0-21.354 9.56-21.354 21.354s9.56 21.354 21.354 21.354h128.125c11.794 0 21.354-9.56 21.354-21.354s-9.56-21.354-21.354-21.354h-128.125zM619.272 439.283h85.416c35.381 0 64.063-28.682 64.063-64.063v-42.709c0-35.381-28.682-64.063-64.063-64.063h-85.416c-35.381 0-64.063 28.682-64.063 64.063v42.709c0 35.381 28.682 64.063 64.063 64.063zM619.272 396.575c-11.794 0-21.354-9.56-21.354-21.354v-42.709c0-11.794 9.56-21.354 21.354-21.354h85.416c11.794 0 21.354 9.56 21.354 21.354v42.709c0 11.794-9.56 21.354-21.354 21.354h-85.416zM576.563 140.325c-11.794 0-21.354 9.56-21.354 21.354s9.56 21.354 21.354 21.354h170.834c11.794 0 21.354-9.56 21.354-21.354s-9.56-21.354-21.354-21.354h-170.834zM576.563 54.908c-11.794 0-21.354 9.56-21.354 21.354s9.56 21.354 21.354 21.354h128.125c11.794 0 21.354-9.56 21.354-21.354s-9.56-21.354-21.354-21.354h-128.125z" />
<glyph unicode="&#xea8b;" glyph-name="desktop-3" data-tags="desktop-3" d="M854.167 567.409v21.354c0 35.381-28.682 64.063-64.063 64.063h-555.209c-35.381 0-64.063-28.682-64.063-64.063v-21.354h683.334zM854.167 524.7h-683.334v-491.147c0-35.381 28.682-64.063 64.063-64.063h555.209c35.381 0 64.063 28.682 64.063 64.063v491.147zM128.125 588.762c0 58.968 47.803 106.771 106.771 106.771h555.209c58.968 0 106.771-47.803 106.771-106.771v-555.209c0-58.968-47.803-106.771-106.771-106.771h-555.209c-58.968 0-106.771 47.803-106.771 106.771v555.209zM597.917 375.221c0 35.381 28.682 64.063 64.063 64.063h42.709c35.381 0 64.063-28.682 64.063-64.063v-256.25c0-35.381-28.682-64.063-64.063-64.063h-42.709c-35.381 0-64.063 28.682-64.063 64.063v256.25zM640.626 375.221v-256.25c0-11.794 9.56-21.354 21.354-21.354h42.709c11.794 0 21.354 9.56 21.354 21.354v256.25c0 11.794-9.56 21.354-21.354 21.354h-42.709c-11.794 0-21.354-9.56-21.354-21.354zM277.604 396.575c-11.794 0-21.354 9.56-21.354 21.354s9.56 21.354 21.354 21.354h213.542c11.794 0 21.354-9.56 21.354-21.354s-9.56-21.354-21.354-21.354h-213.542zM277.604 311.158c-11.794 0-21.354 9.56-21.354 21.354s9.56 21.354 21.354 21.354h213.542c11.794 0 21.354-9.56 21.354-21.354s-9.56-21.354-21.354-21.354h-213.542zM277.604 225.742c-11.794 0-21.354 9.56-21.354 21.354s9.56 21.354 21.354 21.354h128.125c11.794 0 21.354-9.56 21.354-21.354s-9.56-21.354-21.354-21.354h-128.125zM320.313 183.033h128.125c35.381 0 64.063-28.682 64.063-64.063s-28.682-64.063-64.063-64.063h-128.125c-35.381 0-64.063 28.682-64.063 64.063s28.682 64.063 64.063 64.063zM320.313 140.325c-11.794 0-21.354-9.56-21.354-21.354s9.56-21.354 21.354-21.354h128.125c11.794 0 21.354 9.56 21.354 21.354s-9.56 21.354-21.354 21.354h-128.125z" />
<glyph unicode="&#xea9a;" glyph-name="to-left" data-tags="to-left" d="M298.959-30.508h491.147c35.381 0 64.063 28.682 64.063 64.063v555.209c0 35.381-28.682 64.063-64.063 64.063h-491.147v-683.334zM256.25-30.508v683.334h-21.354c-35.381 0-64.063-28.682-64.063-64.063v-555.209c0-35.381 28.682-64.063 64.063-64.063h21.354zM790.105 695.534c58.968 0 106.771-47.803 106.771-106.771v-555.209c0-58.968-47.803-106.771-106.771-106.771h-555.209c-58.968 0-106.771 47.803-106.771 106.771v555.209c0 58.968 47.803 106.771 106.771 106.771h555.209zM507.821 217.727c7.367-9.209 5.875-22.647-3.335-30.014s-22.647-5.875-30.014 3.335l-85.416 106.771c-6.239 7.799-6.239 18.88 0 26.68l85.416 106.771c7.367 9.209 20.805 10.702 30.014 3.335s10.702-20.805 3.335-30.014l-74.745-93.431 74.745-93.431z" />
<glyph unicode="&#xea9b;" glyph-name="to-right" data-tags="to-right" d="M726.042-30.508v683.334h-491.147c-35.381 0-64.063-28.682-64.063-64.063v-555.209c0-35.381 28.682-64.063 64.063-64.063h491.147zM768.751-30.508h21.354c35.381 0 64.063 28.682 64.063 64.063v555.209c0 35.381-28.682 64.063-64.063 64.063h-21.354v-683.334zM234.896 695.534h555.209c58.968 0 106.771-47.803 106.771-106.771v-555.209c0-58.968-47.803-106.771-106.771-106.771h-555.209c-58.968 0-106.771 47.803-106.771 106.771v555.209c0 58.968 47.803 106.771 106.771 106.771zM517.18 217.727l74.745 93.431-74.745 93.431c-7.367 9.209-5.875 22.647 3.335 30.014s22.647 5.875 30.014-3.335l85.416-106.771c6.239-7.799 6.239-18.88 0-26.68l-85.416-106.771c-7.367-9.209-20.805-10.702-30.014-3.335s-10.702 20.805-3.335 30.014z" />
<glyph unicode="&#xeab7;" glyph-name="play-alt" data-tags="play-alt" d="M512.5-115.926c-235.871 0-427.084 191.212-427.084 427.084s191.212 427.084 427.084 427.084c235.871 0 427.084-191.212 427.084-427.084s-191.212-427.084-427.084-427.084zM512.5-73.217c212.284 0 384.375 172.091 384.375 384.375s-172.091 384.375-384.375 384.375c-212.284 0-384.375-172.091-384.375-384.375s172.091-384.375 384.375-384.375zM341.667 447.057c0 14.146 3.903 28.016 11.279 40.086 22.14 36.227 69.455 47.649 105.682 25.51l234.307-143.188c9.25-5.653 17.023-13.425 22.675-22.675 19.679-32.202 9.527-74.261-22.675-93.94l-234.307-143.188c-12.070-7.376-25.941-11.279-40.086-11.279-42.456 0-76.875 34.419-76.875 76.875v271.798zM384.375 447.057v-271.798c0-18.869 15.297-34.166 34.166-34.166 6.287 0 12.452 1.735 17.816 5.013l234.307 143.188c12.076 7.38 15.883 23.152 8.503 35.227-2.12 3.468-5.035 6.383-8.503 8.503l-234.307 143.188c-16.101 9.84-37.13 4.764-46.97-11.338-3.278-5.364-5.013-11.529-5.013-17.816z" />
</font>
</defs>
</svg>
